<mxfile host="Electron" agent="Mozilla/5.0 (Windows NT 10.0; Win64; x64) AppleWebKit/537.36 (KHTML, like Gecko) draw.io/25.0.2 Chrome/128.0.6613.186 Electron/32.2.5 Safari/537.36" version="25.0.2">
  <diagram name="Page-1" id="ICRxT92VfQMizsEYTtIT">
    <mxGraphModel dx="1232" dy="497" grid="1" gridSize="10" guides="1" tooltips="1" connect="1" arrows="1" fold="1" page="1" pageScale="2" pageWidth="850" pageHeight="1100" math="0" shadow="0">
      <root>
        <mxCell id="0" />
        <mxCell id="1" parent="0" />
        <mxCell id="Qyl7MHK5gURJybowoytH-1" value="" style="whiteSpace=wrap;html=1;dashed=1;strokeColor=#666666;" vertex="1" parent="1">
          <mxGeometry x="77" y="478" width="500" height="500" as="geometry" />
        </mxCell>
        <mxCell id="Qyl7MHK5gURJybowoytH-23" value="" style="whiteSpace=wrap;html=1;dashed=1;" vertex="1" parent="1">
          <mxGeometry x="257" y="648" width="140" height="250" as="geometry" />
        </mxCell>
        <mxCell id="Qyl7MHK5gURJybowoytH-24" value="" style="shape=image;verticalLabelPosition=bottom;labelBackgroundColor=default;verticalAlign=top;aspect=fixed;imageAspect=0;image=data:image/png,iVBORw0KGgoAAAANSUhEUgAAAG0AAABuCAYAAAAtbJ34AAAAAXNSR0IArs4c6QAAAARnQU1BAACxjwv8YQUAAAAJcEhZcwAADsMAAA7DAcdvqGQAACW6SURBVHhe7Z15nBTlnfC/T1Ufcw/DDMwFMwPDfd9yioooqCAYPBBNNrtmiRoT380mJtk1yWqycWNiNuqq0XjEqPFGBAFRQJBzBEbuYxiYYe77Pvqoet4/qrpnpuforgZ9389mvtr6mX7qqaquXz3X73qElFLST1icOHGC6upq+nqEQgiSk5MZNWoUiqIEFofF5TlLP18rIpSWpkuJpkt0aXyC1/h7QHLq1Clqamr6bGkgSE4ezMiRIxGiextRBChCoCgCW4gtsVehScDj1Wh2e8irrOed3DwOFVVyvKwGj64HHv73hwRd15FS0uMDNBGAUASKUIw/AkiJjWZsSgJXZQ9h2cRhDIqJJNJhQ1WUng6HnoQmAU3XqWlu59k9R/nw2AVOltd2aWn9XD6EAIFAVQRxEQ5mZiTz3XkTWTwmgwi7iiK6i66L0CTg0XSOlVRx/zufcaioCm+nViWE6FX6/YSPpGPIEYDDprJ27gQeXjqLxKgIRIDgughN03UOFVVy8wsbKW9s7TjIFJhdVVCEoAfh9xMmvvmCV9e7zBXsqsLMjMFsWLuchEhnF8H5hSal5IuLFax6cRPFDS3+wdVpU1mQncbNE4czOT2J1LhoIuy2jrP3c0k0tLnIr25gf0E5bx4+y8W6JjRdIgCbqrBqygheuvNanHabv5fzC63F7eG2lzbz8elCf6WB0RE8esNsvnXFWByqiqL4usf+pna58HWNmq5T1dzGN1/byr4L5bR5vAhAVRSeuGUBa+dOwGFTwSc0Cbybm8e3X/+UFrcHIQQDo5y88c3rWThyCE7z4H6+WiRQ3+ri/rd38N6RfNyaBsDwxDi2fe8WMhPjEL7FdZvby8Mf7aPN4wXApgi+d+Ukrh41tF9gXyMCSIhy8sdVC5mcnuifOxTUNrHnQhm6bgxZii4lpypqKW1sRZcSIQTxEU7+5eppIS/2+rm8JEZH8JPFM7ArRoPRpeSNg6f9LU+REs5V1ePxGl/YFMHdM0cT47T3zxL/H6EIwZT0QcRHOvzf7S+ooKndbZQDlNQ3+xfNihBcNyYzrKmGpktcXo12r4ZHM7QFPiTg1owyt1dDM5t6R10dl1fD5a/bUSalxG2e1+XV8Go6Xt34SGlMl7vU7XReXco+rxtYtzNGXZ12j1EeqFgIVtejGeWBzyIUUuKiiY/oEJpb0yiqawZAeDVd/tenB/nl5gN4NJ0Yp52t961gdlaqpZYmpWRHXgm/+jgHCcwYOoifL51NrNMOgEfT+MF7uzhVUUd8hIOfL5nFtKGD/fW3nCzg8W2HkcDVI4cY3YNqdM8eTeeBdz/jTGU9qhD8dPF0ZmakABDttPHB0fM8t+cYmi65ZtQQfrp4Jqpi3HxDm5t/WbeL89UNOGwqv715PpPTk/zX3XyygD9+9iUuTeeKzGT+c9lcvxairKGFH63fTXF9MzFOO09+YyHDk+IBkBK2ni7kD599icursWB4Kr+8Yba/bnljKz/5cA8VTa1MGzqIhxZNJzbCGfIzbfd4WfPqx7x/JB+AaIedrfevYO6w1O5afpui+KeWvSHNVuXVO95qCXxxsZycwgpyCsvZkVdCq9vjL6tsamPLqUJyCsvZfb6UnMLyLufbV1BOzsUKcgor2JFX1OXNdHk1Pj51kZzCcg4VVXKsrIbYSAexkQ4UobDx+AX2FxjXfv9IfpcW0djuYuvpi+RcrGDfhXJOlNX4y4BOdctZdySfVrcxGQMob2rls7xicgor2Hu+jNKGlk41JbvOlbC/oJwvCsv56GSB//cCFNU1sf1sEbvyS3hq11GOldWYvzQ0hBAkRDkDv4aeWlpCpJNPvreSaUMG9/pWaLqksLaRnedKuGvmGGyqodz0aDo1zW1IID7SQYTd5n/zpJS0uL00tbtx2lRiIxz+loRZt77NhVfTu9XVpaTF7aG53UOEXSXG2bWu26vR2O7Gq+nERjqIsneMx5pu1G1xeXDaVOIiHNgC6ja0udF0nbhIB1EOo2fw1W11e2hyeXCoCgOinF0mZ26vRn2bC13CgEgnEfaOl90YKrzUt7lpdXvIGhjnv66pzuimnuqMy6tx/zs7eHHfSQjW0kKhvKmFFS9s5Pvv7eRYabXvLrCpCoPjokiOiyLSbu+i7BRCEO2wkRwXRUKUs8uD89VNio7osa4iBDEOO8lxUQyI7F7XblNJjI5gcFxUF4EBqIog1mnUTYhyovZQNynGqBsZoOlRFUGM005KXBSJ0RGoAbNpu01lUEwkg2Mjuy2NVEUQaTfqDk+K91/Xo+lsPHGBTScL8AaMg6FiWWgSeGJ7Lvk1DczKSGZ8aqKhqjbXGYoQveonhb+su+JZdCkPKPza6gaWWqkbUIjxWPzPw/yusd3NI1sO8J2/baO0oWMCaAXLQhPmWzR6cAKv3LUYp03t9mP66Z0Yp53JaUlUNrfx2CcH8QbMZkPBstAAHr1xDlvvW0H6gJjAon6CYFcVfrJ4BqMGJeDVsTQ58RGW0Jw2laSYyC7jTj+hoQhBdlI8h3+8mmduvwp7GFon6zX6uWSEEDjtKjZF6XEcDYZloTW2u9l2poiq5rbAon4sYF1UHVgW2ienL3Lnq1t498u8wKJ+QkSXkrrWdupbXd3UX6FgWWgVTa20ur00uzpW//1YQ9MlD763i2m//RvF9YY+0QqWhZYYFYHTphLTSXPQjzUkkov1zdS1uahpbQ8sDoplod00cRjr/ulGbp8+KrConxARCByqgl1VcAZoaELBco0ou4152WkkRPaszOwnOKoi+PG103n0htmMHJwQWBwUy0LrS+XTT2goQnDViCF8Z94EnGrfFpWesCw0byfDXqjopqHSZ7wMR98WiP+c5ifwnD7TUWdj6eVCdj6/pqPp0vL5VaV3nWUwLAvtfE0D1z69joMXKwKLekRKSVVzG7vPl/H5+VJ255f6ffvCRdMl5Y2t7LtQzuf5pew5X0ZZJ+dar65zrLSa3fmlfJ5fyoGCcqqa27oJNhyk+eIeLTHPf76UQ0WVtJpOUaHgE3o4wiYcoX2WV8yXJVXsuVAWWNQjmpS8mnOKRU+9z6Kn17Ho6XXc+uKmLgZDqxTUNrLo6fe5xjzn4v9Zx0v7ToBpqzpX1cDyFzb4r7fo6XU8+P4uXKYfzKWgaTobj59n4ZPv+c+9+H/W8eahs4GH9oquS944eIZ//eDzLkbXULEsNIHRrENFFYJbJmUTF+EAM4DjWFkNbxw8E3hoSHh1nS2nCjhX1eDv9pw2lSVjM80jDMNlq9uLLo032e3V2HSigONlNZfUwgFKGlr4/nu7aHa5/edv92qUN3W09GDoUvLawdO8dvAM56obAouDYlloS8dnMndYCteMHBJY1CNCCAbHRTF96GD/5MWj6Ty160hYC/R2j8Zbh/LwdgoMWTI2g4lpif6/pd863PF3Y7ub+97aQbPL8GgKB4+ms+7oOcobW7vq5i3G7EnzXJo53lrFstDS4mPYsHY5k9MHBRb1SqTdxh3TRvpbqC4lpY0tnCgLFpDXFQnszCvmYFGl/7sIm8p35k7AHmQWJoFjZTVsOH4BLYwHBVDW2MJTO4+E9aA7owgYlzKQ5Jgo0uKiA4uDYlloijAiFn3eTqGgKgq3TxtFcmyHOafZ5eHt3Dys9FYer8ZLB076xyYBDEuMY0JqUkj34/JqPLP7KI3t1lu4W9P49cc5XDTd2C4FVSj89uZ5HH5oNclxUYHFQbEstHAQQJTDznfmTvA/XK+m88Le4zS53CF3LRVNreQWV3XMAoVgxaRskmIiAg/tlUMXK3lu99GQr+mjoKaRDccLLrmVYbohRDnsRHZyXrKCZaE1trv56MQFqlus6cwUATeOzyLa1FlKoM2j8decUyE/iI3HL1BiurEJAXFOO9+dN7FP93UhBJkDY3H4PMZ0nef3nqCgtjFkm7FX1/n5pv1+c5QiBJkJsWGtsS4Hvf/aXthxtph/eO0Ty6YZIQQT05LITorztzZdStYfuxB0oS6lESTy222H/B5MqlBYNmEYqfHRfb6tAkiLi+bOGaOxqQpSQklDM385cNIf0NAXmi7ZdqaI9UfPo+k6ihDERthZPCajz+v2hS6NdWZBbWPQ394TloVW0tBMu1fz+5VbwWlT+cXS2TjMSYOUkv0F5dS09L3w1aVke14RZWaQCGbMwTemjAjpwVU1t3Hf/ElmfILAq0v+uPMIx8uq+1wCSHMse2rnETymY65DVfjPm+YwNCGW7v5ZoaHrkofW7+aGZz+kqK4psDgoloU2ZEAMkXYbA6NCH0c6c82oIYxLGQjmQ2lxe3hkc06fb5ym67z75Tl/N6oIQUJUBAtHpKMEmYBIQJcwOT2J1dNGYVcEUkqaXG7+sCO3z65Z03V25hV3BFoKwZQhg7hzxpgwxWWgIymqb6assYXaNldgcVAsC23JuEwO/3g1d80cE1gUEpF2G9cHdC1v5eZxsZc3TkpjTfPhsfP+7symKvzw6qkkREWE9PCEAEUR/Gb5PDIHxoHZ7b11OI+Kpo7WG0hNcztr39rhd3NzqAr/OHtcFy/k8DCyGaiKQA2hpwjEstDsqkp6fLS/i7OKIgQrJ2cT5ejw5m31ePg8v6THh+fVdf609xh1rS7/xCEtLpq7Zll/aaIddv7hirF+l3KXV+OOlzfT0Na9q/fqOhuOn6e8scN/f/7wVG6bOjKkF6UvbIrg4etn8YeVCxib/HWYZsxJRRgviJ8JqYlcNzrD/7euS97JPUe7p7tusL7NxdO7jvoFpgjB7KwUEsLonlVF8I+zx5E1MBbMrvNwcRWfnLnYbWyrbGrlvz49hNvstmOdDv7tulnEODvCj8JFEYJ5w9O4c8YYnDbrSQcsCy0c00wgdlXl/1w91e//LoE958s4UlLV5ThdSo6VVlPRSa/ntKncNm0kjjAsvgBJMZE8vmKB/9pur8Z/78ilzdOx4PZoOk9sz6XQ7LIFMCtzMDMyBoe0iA8FX/cYzstv+ZfnVdVz+8ub2XuhNLAoZFRFMDo5gdGDE/w33ebx8NyeY10mBh7NmIB01oSPTU5g0aih/r+tYlMU5g9PY4apC/W1thf2nvC3ttKGZt4/mo9H0431YISD361YcBnGMgNpdr/eHuyAoWBZaDvyitl2togDhaHZ03pjQKST5ROH+afNXl0adrFOMWAVTa289kWHNUARgu9dOdm/QA+XAZFOfrn0Cmxmq3F5NZ7fc9w/KfnlpgP+qEtVKKyePorxqYldWlk4LcSHrks+On6BX235IixzkWWhqYrA+OfSsCmCtfMmEO3oCE0qbWjh8/xSpLmGe2nfCX/GBYDBsZHMHpZyyV2UogiuHJHOyknD/dqUC7WNvLz/BEdKqnjnyzw0XUeYM8Z750/qKjBT8OE+BF1Kntl9jKc/P0JeZX1gcVAsC+36sZncMC6Tq0M0zfSGEILk2GhWTclGNVPqub0aT+06gser0eTy8OmZoi4a+TlZKWSZU/ZLQZjLhgeunIK9U0Dk49sO85cDp3B5zYW0TeV7CyczIS2x6yJeGIEU4WJ0j4Y5p691Ym8oUveCDL3i0AGxvHr3dUwd0hEvHS6qIlg1daT/AWhSkltcxRcXKyltaOFYWQ3S95AVhZ8vmRX2UiMQRQiuyErhlknZ2FQFXUoaXW5jbJPGWJY1MI4HF07pVevS87fBUQRMTU8iJTaSrETrL6GiH38TvfxIyIJTFYHDpl5yF4XZ2uYOSyUpJsL/YDTdUFm9vP+kv2s0jkthbErXceVSsasKv10xjyEDYhDmQr7V40VKsCsqq6ePYnCsddNJMFSh8OhNc8j51zuMbtYiinbkNWT5lyELzTfehDHp6YZvbPjBwin+kFxdSvbkl/LGwTP+2ZxPz3g5BeYjOTaab0we0SU0VwBZibH8YOGUr+SaQhiaoWhn1zDlULHcMTe1u3nti9PUhuHO3Bvfnj2OoWaAopSS3edLKWk0Qlt9XeOKSdlhqXyCoSqC7y+cTHp8hwXZYVP5xZIriO2Ux+P/JywLbduZizz4/ue8fTh076NgxDkdXJmdjmKum1rcRheFOWG4c8Zohg6I+cocZFPjo3npzmtZMDyN8SkDuXvmGG4Yn/WVtDLM3uRiXRNHS6vDUlJYFlpZYytuTaPpElzgAlFVhRWThnfLEICpL/zhNVO/MoFhtuQrR6az8bvL2fXgKp6+9SrDe+wrQpeSh9bvYfnzG74e00zWwDgibDYSw9D99YYArho5hMnpSV1mZIoQTEhNJH2AoSu0glUZ2xSFuAgHA82oIGtjjZVjDaFVNLXS2O6m7uswzVw9agjr7rmR1dNHBxZdEtEOO99fOJkIuw2bomBTFKIdNtbMMJKrhY6Rttd3DpsiGBDpvAzqgA4EggibkdHbpijYVMGATsnHgiEQRDlsOFSViB56l2CI1leuk78rz+bR0lF4pBI0Y4/0/UdYfb+C0+r2klNYzpfFVXh1ybiUgVw9aki3pCzBcHk1dp8v5UhJtdmK05mSPuiydbFSQoOZvulibRMDopzcOmVkl6xxfaFLydnKOmpbXMzIHNzj2rOvjD2WhfZVIqXxg3xKVKWPxCp9IU39XufzXO5JhZSgSSNbnuiU5CVUfPcmekgqQxChKQjF7JN7qtodj6bT7PL4E0ZeToQwpuB2M+AuXNOFMKfync9zuRHCGAd9XbEVgdH5hQwsCAFFyZiHGJAZ8sh9oqyGZc9vYPvZ4sCifkJEmi+/RwvTNKPOfwglayFGiwvO3gtlHLxYwdHS6sCikJFmF+gL99Evk4YlGJ2v+TVcrld0XfJ27ll+sWk/LWEsnRShqCEL7HKg6ZI2j5fjpTVsOlnA7vOlNLS58OiaJb/+cGhoc/Holhzezj0bdga4y4EmJS/vP8Wf9hznXFVYUTOhdYs+lo7L5PZpo0KOmvEhpWER/tmGvUx+7A2ueOItbn1pE9c/8wHpD7/E8j9t4MMQHFfDRZeSZc9v4LFPD/LAuzvZe6H0a2ndPWP2Lub/rWK5iWUkxPHsbVczZUjoUTNSQrvXy4Pvf84fd35JcX0zcREOBsdG+fP07jhXwg8/+LyLP8jlREqoMJ1d3V6NpjCCMC4XihBMGzqIYYnxZJpORlawLDTfrKwv//lANKmz7kg+HxzNR0rJPXPGs+XeFex44BY233szr919HZPTEpmdlcKgmMjA6pcFVRE8v3oRd0wbxQ8WTmH2sBSrncxlQxWCh5fMYut9K0iItK5ZCv3Jm/gmEVaatVeTfHA0H02XOGwqDy2ewdQhg8hOimfa0MGsmJzNzh+sMvZUCdAQSLNr8+rGbMur9xyY7jvON8mQnTbe8Zl4rsxO54XVi3h46SySoiO7ycyoYwb0BwmA95/ff2zoM0Fh7n1gZGsNvIvgWBZam0fj0zNFtFmIFdbN/MWYKpzAH6cIQaTd1mPCa12XtHs0Pjiaz88/2s+vP/6CM5W13cY+Tdc5dLGS7WeL0DQdt6az/WwRj2zJ4dMzF/2C33WuhKK67hlNdWmkp99+tphHP87hkS057MwrxuXVus00fcd+dq6Y/9h8gEe25LDpZAGtbm+vQr6cWNMPmanY73lzG7+6cQ73LZgUWNwjqiJIjo1CCGjzeHliey4/XzKLuEhHnzvyNbS5eHzbYV7NOUV1S7tpupE8sSOX6UMH87sV85kyZBCKEBTVNXPDc+tpdnn40x3XsOlkIRuOn0fTJbOzUrh2dAbv5OZx79s7SImNYtsDt5hBFIb67JUDJ3lh73FOV9ahCsV/nXEpCTx07QxuNp2AvLpOblEV//S3T8mrqu+i08xIiOWRG2dzy+TsPocPXUryqxuoampjZmZySP4mxkZCOrrUrLe08qZWQytiYX1hUxTWzBjNgEgnEsmze44x6bHXeWTzAQ4UlBtZwgMcXNo9Xn7y4V7+8FkubR4v35kzno1rl/HsbVczKS2J/QXlPPDuTtpM21ur2+PfbOGJ7blsOVVARkIs41MGMjbZ8K8srGvC7dVpMzdWwPQ/fG73UX60fjdnKuu5eWI2r9y1mNe/eT1Lx2VysryW+97eQWGtkUajorGVlX/eyMnyWqamD+JXN83h8RXzuXvmGBQhaHN7gyqndV3ysw17ue3lTb3GMAQipZcLtRs5Vf6SdaGNHDTActSMz2XtxdWL/PUqmtp47NNDLH12PUufXc+nZ4po7+QDWFDbZIb3Sn6/cgGPr5jPgux07pwxmlfvXkxchIMDheWsO5qP1slVQgJnKut4/Ob5bL1vBZ/cv5LfLJ9nOKZK8wjjX8Bo+a/mnMaj6dwyOZs/r17EiknDuWnCMJ657WrGJCdQ1dLGf2w+gKbr5Fc3UNfmQkp4+taruG/+RNbOm8CTqxby8X03s3rGqKAqLR1JTUs7rR4v9SGaZqTUqWjK4WL9J9aFNmdYKi+vWcyqKSMCi3pFmE40yyYO5+P7VnDv/IlMGZKE06bS7PKQU1jBHS9v5g87cv3Omy/uO0GTy016fAxzh6XS7tVoMVNNxDodrJyUjS4lrx80Hrj/WkIwKzOZVVNGMDQhloHREaZppmeOl9Zwtqoeh6pyz5zx6Lqk1e2l1e1FNZ1jpYTc4ipa3F7s5m6NEnjlwCkjqYwusSkKQwbE4lDVoBpBgbH/p0NVuwSi9I0EaXSRloUW47Rz4/is8LyIhGDqkEE8sXIBex68lTP//k3WzBiNXVVobHfz+22HOVNRhwTT51FSWNvE5MfeIP3hF/2fzF++zMsHTgKChjZ3l4hOAVw7OoPoEAMlPjpZgKbrtHu8LH12PWk/77hOxi9e5t63P0OY3XWr28OE1ESyE+NBSv7n86OM+fVfWfvWds5U1BlancAL9ICqCH510xze+Nb1jEgaEFgcFMtCuxwo5v6iyXFRPHfHNbyyxkgV3+TysP6YsbeKb8wZFBPJjROGceP4js+yCcO5edJwbp0ygjUzR3ebdQoLtj6vuaFQtNMIyb2p03VumjCM5ROHsWrqSNbMGM3A6AiinXY2rF3GN6aMwGlT8Wg6r31xhhm/e5M1f/mYupb2bjPTQBQhGJcykKtGDum2MUQoWK7h0YxtEAOn3MGQRuv2I4QRUBdhU7l+bCaDY6OQSKpbXCBhcJwx28waGMszt17Fy2uu7fJ5Zc1iXrlrMWvnTvT75IdDYrThcxkf4eC3N8/v8Tp/uWsx/3b9LL8bQtqAGF69+zr2/8tt/HjRNKaa2qEPj53n4U37Q3o2l2SaCfwiGKcrarn+mQ/YerowsKhXvLrO0dIqzlbW4QrY0kqXRlqkFrcHVREsGJ4GAm4an4VNUSiobaSx3U2ETSXSbvN/nDbVsJWpRsZth00NyzK9asoIbIpCdUs7J8pqcPZyHZuZNU6aDy3CbmNCWiK/WDqbDWuX8Z254/Hqhod0e5DkZlIasdxhm2YCvwjG5/ml5FXVc6K8NrCoV5raPXz79U9Z9PQ6ntr5JYW1jbR5vLR5vJwsr+X2VzbT2O5mSHwMs7KSEcCtU0eSHBtFTYuLn27YS1F9My5zqt7m8fJlcRVvHjqL26shpZG5x7rIIDk2imlDB+HRdH62YS8nymqN65h7rp2vbuDVnFNUmlns3F6NXfml1La0o5kb3sY6HcY4ZwZsBHt5dCl5ad9JfrhuV1gJB0KduvhRzaiZ3pfE3altaaeiqZXyxlZ+umEfD286QKzTTpTdRkVTKx5dJ8Jm45uzxjDEdFpNj4/hu/Mm8OutB3nvyDl255dyy+RsBsVEsiOvmAOFFUgpKapr4sfXzvBHpwYdzwLcFyLtdu6ZM54jJdXkVzew8I/vsnziMEYNTiC3uIotpwpp92jcNrWIl9cs5pPTF1nz6scMT4znn+eOJzspnkNFVfxqaw52VeEbk0cQFcSnRZM6b+fm8WVJFd+6YhzTO+0jFwqWW9rScVnct2AiN4zPCizqlazEOD6+bwU/WjSNGKcdKSUNbS7KTI1+RkIsz9x2FT++doZ/jaMqggevnsoLd1xDalw0Na3tvLDvBL/55CAHCiuIdtp4bPlc7r9yMooQOFWFSLsNu6qQkRDX41opa2AsTlUlxmknzulAmJOWO6aN4m/fWsKEtETaPF7ePJzHo1ty+OhEAQJ48Kop/G7lAmyqwvCkOOYOS+VsVR0//GA3N//5Ix79OAenTeU/l83hn+dN6LZzVK9Y7xmBMPZP81maFYvOMrq53WJ9q4utpwupaG4jym5jeGI887NTcdoM17nO15RmKFCTy82ucyVcrGvCrir+tVtcpAO7uYuEputUNrVxsKiSxaOH4rTZut2/y6txoKAcp01lZmayX7DSzOPY7vWyv6CcvMp6PLrO4Jgo5g1PZXBslH99punGdpVnK+s4VFRFfVs7qbHRzM9OIzkuCrsavJv26joPb9zPFxcreONb1/cY5BHo2BNpFzxzm8aUIWEI7VIxrASGLg1zFtWbR5IPaap+fHVELzMvaXpz9fUy+Qb+nlqi9N+feR0EijCuF4iUEi2E43pCmgp0XUqiHfYe7zdQaFEOG1vvW86cYSnWu0fdNEmEM+vBN9VXjEx2Pi+m7rfcFWF2l746ai91hOnN1Re+qXZPCLPcfx2l9wTbIsTjekIIYzO9uAhH0Pv1IRAIoaIIm3Whtbg8bD5ZELLOrJ+ekZ30n1axLLSNJy5w91+3hp3Oth+jtypraCa/qr6bdSMULAutrtUwo1jJjt1PVzRd8sMPdrPwyfe4WBuaaaYzloU2IXUgUQ4bSRZMM/10RWJEzbR5vF9P1Mz0jGTW33MTq6aODCzqJ0QExkTEoapBF+I9YVlo0Q47s4elfqVBd//bURXBQ9dO5/cr55Nt7lBvBctC6+fSUcysDndOH429B2emYFgWmi4lZY0tYeXU76cDQ1fa83ozGJaFVt/qYsULG/nZhj0h2Y366YpPNdfQ5vL7Y1rFstA0KWlsd7PxRAF1lzEtxd8LXl3nT3uOsfLPH1Hd3BbWAtuy0AZEOpmVkUxNSzuf54efPvDvEWlubvT77bl8cbGiixeZFSwLza4q/Peqhby4ehELR6YHFvfTB5qu82rOKUobWrht6sgeXdNDwbLQAOIjHKycPKKL72NxfTM7z5WQW1zVbVcLr6ZztrKOw0WVFNQ0dlPdNLvcHCmu4mhpdbcNfDyazunyWg4VVZJfbezk1JnGdjdHSqo5XlbTzczv0XTyquqN69Y2dhlDpJTUtLSRW1RFbnEVNS3tXdLxejSdPPOeC2sbu3h86VJS29LO4aJKjpRUddtWzKPpnDOvW1TX5Feuq0Jwz5zxvHTntfxm+bywnHroyZ42INLJpxZNM15NZ9nzG9hfUI4iBMsmDOPFO69FVQwH0eNl1Vz15Ptouo7TpvLOP93AldlGK3V5NSY/9gYVTa0IYSR3Xv/Py/1v4K5zJdz60iZcXo34SCcb1y5jYloSmA/vmiff52hpNULAkrGZvP6tJf772nyygG++9gkeTWNApJNDP1pNYrTxonl1nfl/eJczlXVgxt399e7r/Vr3Vw6c5Ecf7MGjazhVleM/u4ukGKNluDWNJc+sJ7fYSN97z5zx/NfN8/zWgw+Pneeev23DrWnYFYXtD9zChNREhDDiGAzzUd+2f5dX4/63d/Di/p4C5QPwmtEpVlDMhJtLx2UyI8PI9duBJC7CwfzhqczITGZBdhrJMR1GP1UIVk7KZmZmMrMyklk4omuw4qDYSGZnpTAjI5k5WSnd/C2vG5th1M1M8b8IPtLio5mblcLMjGTmD0/r5rW1cEQaMzIGMyszmQXD07q8pMOT4pk7zKi7aNTQgJzJRlY832+dnG68RD4yB8Yxb3gqMzKSuWbkUAZ1+r0+009fAsOcZTb04j8ivJoun9hxmH/fuA+3phNhU3n/nhtZMjbTko3IZ2eT+KzaHTemSyMkSJo3rZqeTT68um50P2Zqh87BC53td8HqquZ1e6tr62T3kqa12t91BexU5aunS2MTBcNCbpRJMx2Fr8sMrNv5usL08Qz9SRq0uj1c8fu3OV5WA6aT8Pbv3WJY3AFS46L9P0aTkh1hZC5QzJtzqGq3N0kxXdx87miBRkibouCwqf66nfGdN5S6nQVGD3U7v4TCTJbmsKk95q9UzeBJp001Paw6yoSZjqK3up2v69uYyCpVze1UNndExSpCMCTBcHpShDCCKnzNX9Mlb+Xm0dAe+hZZ/VxedCk5XFTZZZOHqUMGER9hDA2KMF2UfZ62uqmmem73MTxhGOj6uXRqW9p5cueX/gQ7qiJYPX0UDpvRsBQBxEQ4+OnimdjN1ubVjYC6YyXVuLXQggr6uXSklDS7PPxsw172FpT7e7rUuGiuGTXU3/0rmP37mhmjucJ0K5Pm3tQ3/ulD3sk9R5vb4x9YZf/nsn58kx2PplNU18xPPtzN64fO4PZqCHOS84+zx5FhRq0CCCkNeUoJu84Vs/yFjTR2mmo6VIXZWSk8vmI+IwcldJmB9XPp6FLS4vaw/uh5frn5QJdN1FVFsGjkUD5cu8yIVTDr+IWGuZJff+w897613b99pDCn4aqikBYXTYyzZz+9fsLD7dWpbmmj3tT6+wRmUxSmpCfx5reXMiyxq8d0F6FJc4fbj04W8G8b9nGuut6/vsJnA/JX7edyIWVHri4hBJF2lSVjMnn29qtJiunYsdhHF6HhW3TqOmUNLTy+7TB//eI0bR7vJTmo/m/B/2iDPQZh+IGEiq83sykKidERPLFyAYvHZBAX4egmMHoSWmfcXo1TFXVsP1tEbnEVhXVNNLe7/Tv3/b3h8Xhwuzs23+sNIQRRkVEhjf2RdhvxkQ7GpgxkVkYy14/NYECks5uioDN9Cs2HNH3kNV1HJ4Q37X8pZeVlnDt3DhnkpVVtKrNmzcJuC557uWPO0Lu7eiD/Fw57MGmA/G/zAAAAAElFTkSuQmCC;" vertex="1" parent="1">
          <mxGeometry x="287.28" y="678" width="59.45" height="60" as="geometry" />
        </mxCell>
        <mxCell id="Qyl7MHK5gURJybowoytH-25" value="" style="shape=image;verticalLabelPosition=bottom;labelBackgroundColor=default;verticalAlign=top;aspect=fixed;imageAspect=0;image=data:image/png,iVBORw0KGgoAAAANSUhEUgAAAG0AAABuCAYAAAAtbJ34AAAAAXNSR0IArs4c6QAAAARnQU1BAACxjwv8YQUAAAAJcEhZcwAADsMAAA7DAcdvqGQAACW6SURBVHhe7Z15nBTlnfC/T1Ufcw/DDMwFMwPDfd9yioooqCAYPBBNNrtmiRoT380mJtk1yWqycWNiNuqq0XjEqPFGBAFRQJBzBEbuYxiYYe77Pvqoet4/qrpnpuforgZ9389mvtr6mX7qqaquXz3X73qElFLST1icOHGC6upq+nqEQgiSk5MZNWoUiqIEFofF5TlLP18rIpSWpkuJpkt0aXyC1/h7QHLq1Clqamr6bGkgSE4ezMiRIxGiextRBChCoCgCW4gtsVehScDj1Wh2e8irrOed3DwOFVVyvKwGj64HHv73hwRd15FS0uMDNBGAUASKUIw/AkiJjWZsSgJXZQ9h2cRhDIqJJNJhQ1WUng6HnoQmAU3XqWlu59k9R/nw2AVOltd2aWn9XD6EAIFAVQRxEQ5mZiTz3XkTWTwmgwi7iiK6i66L0CTg0XSOlVRx/zufcaioCm+nViWE6FX6/YSPpGPIEYDDprJ27gQeXjqLxKgIRIDgughN03UOFVVy8wsbKW9s7TjIFJhdVVCEoAfh9xMmvvmCV9e7zBXsqsLMjMFsWLuchEhnF8H5hSal5IuLFax6cRPFDS3+wdVpU1mQncbNE4czOT2J1LhoIuy2jrP3c0k0tLnIr25gf0E5bx4+y8W6JjRdIgCbqrBqygheuvNanHabv5fzC63F7eG2lzbz8elCf6WB0RE8esNsvnXFWByqiqL4usf+pna58HWNmq5T1dzGN1/byr4L5bR5vAhAVRSeuGUBa+dOwGFTwSc0Cbybm8e3X/+UFrcHIQQDo5y88c3rWThyCE7z4H6+WiRQ3+ri/rd38N6RfNyaBsDwxDi2fe8WMhPjEL7FdZvby8Mf7aPN4wXApgi+d+Ukrh41tF9gXyMCSIhy8sdVC5mcnuifOxTUNrHnQhm6bgxZii4lpypqKW1sRZcSIQTxEU7+5eppIS/2+rm8JEZH8JPFM7ArRoPRpeSNg6f9LU+REs5V1ePxGl/YFMHdM0cT47T3zxL/H6EIwZT0QcRHOvzf7S+ooKndbZQDlNQ3+xfNihBcNyYzrKmGpktcXo12r4ZHM7QFPiTg1owyt1dDM5t6R10dl1fD5a/bUSalxG2e1+XV8Go6Xt34SGlMl7vU7XReXco+rxtYtzNGXZ12j1EeqFgIVtejGeWBzyIUUuKiiY/oEJpb0yiqawZAeDVd/tenB/nl5gN4NJ0Yp52t961gdlaqpZYmpWRHXgm/+jgHCcwYOoifL51NrNMOgEfT+MF7uzhVUUd8hIOfL5nFtKGD/fW3nCzg8W2HkcDVI4cY3YNqdM8eTeeBdz/jTGU9qhD8dPF0ZmakABDttPHB0fM8t+cYmi65ZtQQfrp4Jqpi3HxDm5t/WbeL89UNOGwqv715PpPTk/zX3XyygD9+9iUuTeeKzGT+c9lcvxairKGFH63fTXF9MzFOO09+YyHDk+IBkBK2ni7kD599icursWB4Kr+8Yba/bnljKz/5cA8VTa1MGzqIhxZNJzbCGfIzbfd4WfPqx7x/JB+AaIedrfevYO6w1O5afpui+KeWvSHNVuXVO95qCXxxsZycwgpyCsvZkVdCq9vjL6tsamPLqUJyCsvZfb6UnMLyLufbV1BOzsUKcgor2JFX1OXNdHk1Pj51kZzCcg4VVXKsrIbYSAexkQ4UobDx+AX2FxjXfv9IfpcW0djuYuvpi+RcrGDfhXJOlNX4y4BOdctZdySfVrcxGQMob2rls7xicgor2Hu+jNKGlk41JbvOlbC/oJwvCsv56GSB//cCFNU1sf1sEbvyS3hq11GOldWYvzQ0hBAkRDkDv4aeWlpCpJNPvreSaUMG9/pWaLqksLaRnedKuGvmGGyqodz0aDo1zW1IID7SQYTd5n/zpJS0uL00tbtx2lRiIxz+loRZt77NhVfTu9XVpaTF7aG53UOEXSXG2bWu26vR2O7Gq+nERjqIsneMx5pu1G1xeXDaVOIiHNgC6ja0udF0nbhIB1EOo2fw1W11e2hyeXCoCgOinF0mZ26vRn2bC13CgEgnEfaOl90YKrzUt7lpdXvIGhjnv66pzuimnuqMy6tx/zs7eHHfSQjW0kKhvKmFFS9s5Pvv7eRYabXvLrCpCoPjokiOiyLSbu+i7BRCEO2wkRwXRUKUs8uD89VNio7osa4iBDEOO8lxUQyI7F7XblNJjI5gcFxUF4EBqIog1mnUTYhyovZQNynGqBsZoOlRFUGM005KXBSJ0RGoAbNpu01lUEwkg2Mjuy2NVEUQaTfqDk+K91/Xo+lsPHGBTScL8AaMg6FiWWgSeGJ7Lvk1DczKSGZ8aqKhqjbXGYoQveonhb+su+JZdCkPKPza6gaWWqkbUIjxWPzPw/yusd3NI1sO8J2/baO0oWMCaAXLQhPmWzR6cAKv3LUYp03t9mP66Z0Yp53JaUlUNrfx2CcH8QbMZkPBstAAHr1xDlvvW0H6gJjAon6CYFcVfrJ4BqMGJeDVsTQ58RGW0Jw2laSYyC7jTj+hoQhBdlI8h3+8mmduvwp7GFon6zX6uWSEEDjtKjZF6XEcDYZloTW2u9l2poiq5rbAon4sYF1UHVgW2ienL3Lnq1t498u8wKJ+QkSXkrrWdupbXd3UX6FgWWgVTa20ur00uzpW//1YQ9MlD763i2m//RvF9YY+0QqWhZYYFYHTphLTSXPQjzUkkov1zdS1uahpbQ8sDoplod00cRjr/ulGbp8+KrConxARCByqgl1VcAZoaELBco0ou4152WkkRPaszOwnOKoi+PG103n0htmMHJwQWBwUy0LrS+XTT2goQnDViCF8Z94EnGrfFpWesCw0byfDXqjopqHSZ7wMR98WiP+c5ifwnD7TUWdj6eVCdj6/pqPp0vL5VaV3nWUwLAvtfE0D1z69joMXKwKLekRKSVVzG7vPl/H5+VJ255f6ffvCRdMl5Y2t7LtQzuf5pew5X0ZZJ+dar65zrLSa3fmlfJ5fyoGCcqqa27oJNhyk+eIeLTHPf76UQ0WVtJpOUaHgE3o4wiYcoX2WV8yXJVXsuVAWWNQjmpS8mnOKRU+9z6Kn17Ho6XXc+uKmLgZDqxTUNrLo6fe5xjzn4v9Zx0v7ToBpqzpX1cDyFzb4r7fo6XU8+P4uXKYfzKWgaTobj59n4ZPv+c+9+H/W8eahs4GH9oquS944eIZ//eDzLkbXULEsNIHRrENFFYJbJmUTF+EAM4DjWFkNbxw8E3hoSHh1nS2nCjhX1eDv9pw2lSVjM80jDMNlq9uLLo032e3V2HSigONlNZfUwgFKGlr4/nu7aHa5/edv92qUN3W09GDoUvLawdO8dvAM56obAouDYlloS8dnMndYCteMHBJY1CNCCAbHRTF96GD/5MWj6Ty160hYC/R2j8Zbh/LwdgoMWTI2g4lpif6/pd863PF3Y7ub+97aQbPL8GgKB4+ms+7oOcobW7vq5i3G7EnzXJo53lrFstDS4mPYsHY5k9MHBRb1SqTdxh3TRvpbqC4lpY0tnCgLFpDXFQnszCvmYFGl/7sIm8p35k7AHmQWJoFjZTVsOH4BLYwHBVDW2MJTO4+E9aA7owgYlzKQ5Jgo0uKiA4uDYlloijAiFn3eTqGgKgq3TxtFcmyHOafZ5eHt3Dys9FYer8ZLB076xyYBDEuMY0JqUkj34/JqPLP7KI3t1lu4W9P49cc5XDTd2C4FVSj89uZ5HH5oNclxUYHFQbEstHAQQJTDznfmTvA/XK+m88Le4zS53CF3LRVNreQWV3XMAoVgxaRskmIiAg/tlUMXK3lu99GQr+mjoKaRDccLLrmVYbohRDnsRHZyXrKCZaE1trv56MQFqlus6cwUATeOzyLa1FlKoM2j8decUyE/iI3HL1BiurEJAXFOO9+dN7FP93UhBJkDY3H4PMZ0nef3nqCgtjFkm7FX1/n5pv1+c5QiBJkJsWGtsS4Hvf/aXthxtph/eO0Ty6YZIQQT05LITorztzZdStYfuxB0oS6lESTy222H/B5MqlBYNmEYqfHRfb6tAkiLi+bOGaOxqQpSQklDM385cNIf0NAXmi7ZdqaI9UfPo+k6ihDERthZPCajz+v2hS6NdWZBbWPQ394TloVW0tBMu1fz+5VbwWlT+cXS2TjMSYOUkv0F5dS09L3w1aVke14RZWaQCGbMwTemjAjpwVU1t3Hf/ElmfILAq0v+uPMIx8uq+1wCSHMse2rnETymY65DVfjPm+YwNCGW7v5ZoaHrkofW7+aGZz+kqK4psDgoloU2ZEAMkXYbA6NCH0c6c82oIYxLGQjmQ2lxe3hkc06fb5ym67z75Tl/N6oIQUJUBAtHpKMEmYBIQJcwOT2J1dNGYVcEUkqaXG7+sCO3z65Z03V25hV3BFoKwZQhg7hzxpgwxWWgIymqb6assYXaNldgcVAsC23JuEwO/3g1d80cE1gUEpF2G9cHdC1v5eZxsZc3TkpjTfPhsfP+7symKvzw6qkkREWE9PCEAEUR/Gb5PDIHxoHZ7b11OI+Kpo7WG0hNcztr39rhd3NzqAr/OHtcFy/k8DCyGaiKQA2hpwjEstDsqkp6fLS/i7OKIgQrJ2cT5ejw5m31ePg8v6THh+fVdf609xh1rS7/xCEtLpq7Zll/aaIddv7hirF+l3KXV+OOlzfT0Na9q/fqOhuOn6e8scN/f/7wVG6bOjKkF6UvbIrg4etn8YeVCxib/HWYZsxJRRgviJ8JqYlcNzrD/7euS97JPUe7p7tusL7NxdO7jvoFpgjB7KwUEsLonlVF8I+zx5E1MBbMrvNwcRWfnLnYbWyrbGrlvz49hNvstmOdDv7tulnEODvCj8JFEYJ5w9O4c8YYnDbrSQcsCy0c00wgdlXl/1w91e//LoE958s4UlLV5ThdSo6VVlPRSa/ntKncNm0kjjAsvgBJMZE8vmKB/9pur8Z/78ilzdOx4PZoOk9sz6XQ7LIFMCtzMDMyBoe0iA8FX/cYzstv+ZfnVdVz+8ub2XuhNLAoZFRFMDo5gdGDE/w33ebx8NyeY10mBh7NmIB01oSPTU5g0aih/r+tYlMU5g9PY4apC/W1thf2nvC3ttKGZt4/mo9H0431YISD361YcBnGMgNpdr/eHuyAoWBZaDvyitl2togDhaHZ03pjQKST5ROH+afNXl0adrFOMWAVTa289kWHNUARgu9dOdm/QA+XAZFOfrn0Cmxmq3F5NZ7fc9w/KfnlpgP+qEtVKKyePorxqYldWlk4LcSHrks+On6BX235IixzkWWhqYrA+OfSsCmCtfMmEO3oCE0qbWjh8/xSpLmGe2nfCX/GBYDBsZHMHpZyyV2UogiuHJHOyknD/dqUC7WNvLz/BEdKqnjnyzw0XUeYM8Z750/qKjBT8OE+BF1Kntl9jKc/P0JeZX1gcVAsC+36sZncMC6Tq0M0zfSGEILk2GhWTclGNVPqub0aT+06gser0eTy8OmZoi4a+TlZKWSZU/ZLQZjLhgeunIK9U0Dk49sO85cDp3B5zYW0TeV7CyczIS2x6yJeGIEU4WJ0j4Y5p691Ym8oUveCDL3i0AGxvHr3dUwd0hEvHS6qIlg1daT/AWhSkltcxRcXKyltaOFYWQ3S95AVhZ8vmRX2UiMQRQiuyErhlknZ2FQFXUoaXW5jbJPGWJY1MI4HF07pVevS87fBUQRMTU8iJTaSrETrL6GiH38TvfxIyIJTFYHDpl5yF4XZ2uYOSyUpJsL/YDTdUFm9vP+kv2s0jkthbErXceVSsasKv10xjyEDYhDmQr7V40VKsCsqq6ePYnCsddNJMFSh8OhNc8j51zuMbtYiinbkNWT5lyELzTfehDHp6YZvbPjBwin+kFxdSvbkl/LGwTP+2ZxPz3g5BeYjOTaab0we0SU0VwBZibH8YOGUr+SaQhiaoWhn1zDlULHcMTe1u3nti9PUhuHO3Bvfnj2OoWaAopSS3edLKWk0Qlt9XeOKSdlhqXyCoSqC7y+cTHp8hwXZYVP5xZIriO2Ux+P/JywLbduZizz4/ue8fTh076NgxDkdXJmdjmKum1rcRheFOWG4c8Zohg6I+cocZFPjo3npzmtZMDyN8SkDuXvmGG4Yn/WVtDLM3uRiXRNHS6vDUlJYFlpZYytuTaPpElzgAlFVhRWThnfLEICpL/zhNVO/MoFhtuQrR6az8bvL2fXgKp6+9SrDe+wrQpeSh9bvYfnzG74e00zWwDgibDYSw9D99YYArho5hMnpSV1mZIoQTEhNJH2AoSu0glUZ2xSFuAgHA82oIGtjjZVjDaFVNLXS2O6m7uswzVw9agjr7rmR1dNHBxZdEtEOO99fOJkIuw2bomBTFKIdNtbMMJKrhY6Rttd3DpsiGBDpvAzqgA4EggibkdHbpijYVMGATsnHgiEQRDlsOFSViB56l2CI1leuk78rz+bR0lF4pBI0Y4/0/UdYfb+C0+r2klNYzpfFVXh1ybiUgVw9aki3pCzBcHk1dp8v5UhJtdmK05mSPuiydbFSQoOZvulibRMDopzcOmVkl6xxfaFLydnKOmpbXMzIHNzj2rOvjD2WhfZVIqXxg3xKVKWPxCp9IU39XufzXO5JhZSgSSNbnuiU5CVUfPcmekgqQxChKQjF7JN7qtodj6bT7PL4E0ZeToQwpuB2M+AuXNOFMKfync9zuRHCGAd9XbEVgdH5hQwsCAFFyZiHGJAZ8sh9oqyGZc9vYPvZ4sCifkJEmi+/RwvTNKPOfwglayFGiwvO3gtlHLxYwdHS6sCikJFmF+gL99Evk4YlGJ2v+TVcrld0XfJ27ll+sWk/LWEsnRShqCEL7HKg6ZI2j5fjpTVsOlnA7vOlNLS58OiaJb/+cGhoc/Holhzezj0bdga4y4EmJS/vP8Wf9hznXFVYUTOhdYs+lo7L5PZpo0KOmvEhpWER/tmGvUx+7A2ueOItbn1pE9c/8wHpD7/E8j9t4MMQHFfDRZeSZc9v4LFPD/LAuzvZe6H0a2ndPWP2Lub/rWK5iWUkxPHsbVczZUjoUTNSQrvXy4Pvf84fd35JcX0zcREOBsdG+fP07jhXwg8/+LyLP8jlREqoMJ1d3V6NpjCCMC4XihBMGzqIYYnxZJpORlawLDTfrKwv//lANKmz7kg+HxzNR0rJPXPGs+XeFex44BY233szr919HZPTEpmdlcKgmMjA6pcFVRE8v3oRd0wbxQ8WTmH2sBSrncxlQxWCh5fMYut9K0iItK5ZCv3Jm/gmEVaatVeTfHA0H02XOGwqDy2ewdQhg8hOimfa0MGsmJzNzh+sMvZUCdAQSLNr8+rGbMur9xyY7jvON8mQnTbe8Zl4rsxO54XVi3h46SySoiO7ycyoYwb0BwmA95/ff2zoM0Fh7n1gZGsNvIvgWBZam0fj0zNFtFmIFdbN/MWYKpzAH6cIQaTd1mPCa12XtHs0Pjiaz88/2s+vP/6CM5W13cY+Tdc5dLGS7WeL0DQdt6az/WwRj2zJ4dMzF/2C33WuhKK67hlNdWmkp99+tphHP87hkS057MwrxuXVus00fcd+dq6Y/9h8gEe25LDpZAGtbm+vQr6cWNMPmanY73lzG7+6cQ73LZgUWNwjqiJIjo1CCGjzeHliey4/XzKLuEhHnzvyNbS5eHzbYV7NOUV1S7tpupE8sSOX6UMH87sV85kyZBCKEBTVNXPDc+tpdnn40x3XsOlkIRuOn0fTJbOzUrh2dAbv5OZx79s7SImNYtsDt5hBFIb67JUDJ3lh73FOV9ahCsV/nXEpCTx07QxuNp2AvLpOblEV//S3T8mrqu+i08xIiOWRG2dzy+TsPocPXUryqxuoampjZmZySP4mxkZCOrrUrLe08qZWQytiYX1hUxTWzBjNgEgnEsmze44x6bHXeWTzAQ4UlBtZwgMcXNo9Xn7y4V7+8FkubR4v35kzno1rl/HsbVczKS2J/QXlPPDuTtpM21ur2+PfbOGJ7blsOVVARkIs41MGMjbZ8K8srGvC7dVpMzdWwPQ/fG73UX60fjdnKuu5eWI2r9y1mNe/eT1Lx2VysryW+97eQWGtkUajorGVlX/eyMnyWqamD+JXN83h8RXzuXvmGBQhaHN7gyqndV3ysw17ue3lTb3GMAQipZcLtRs5Vf6SdaGNHDTActSMz2XtxdWL/PUqmtp47NNDLH12PUufXc+nZ4po7+QDWFDbZIb3Sn6/cgGPr5jPgux07pwxmlfvXkxchIMDheWsO5qP1slVQgJnKut4/Ob5bL1vBZ/cv5LfLJ9nOKZK8wjjX8Bo+a/mnMaj6dwyOZs/r17EiknDuWnCMJ657WrGJCdQ1dLGf2w+gKbr5Fc3UNfmQkp4+taruG/+RNbOm8CTqxby8X03s3rGqKAqLR1JTUs7rR4v9SGaZqTUqWjK4WL9J9aFNmdYKi+vWcyqKSMCi3pFmE40yyYO5+P7VnDv/IlMGZKE06bS7PKQU1jBHS9v5g87cv3Omy/uO0GTy016fAxzh6XS7tVoMVNNxDodrJyUjS4lrx80Hrj/WkIwKzOZVVNGMDQhloHREaZppmeOl9Zwtqoeh6pyz5zx6Lqk1e2l1e1FNZ1jpYTc4ipa3F7s5m6NEnjlwCkjqYwusSkKQwbE4lDVoBpBgbH/p0NVuwSi9I0EaXSRloUW47Rz4/is8LyIhGDqkEE8sXIBex68lTP//k3WzBiNXVVobHfz+22HOVNRhwTT51FSWNvE5MfeIP3hF/2fzF++zMsHTgKChjZ3l4hOAVw7OoPoEAMlPjpZgKbrtHu8LH12PWk/77hOxi9e5t63P0OY3XWr28OE1ESyE+NBSv7n86OM+fVfWfvWds5U1BlancAL9ICqCH510xze+Nb1jEgaEFgcFMtCuxwo5v6iyXFRPHfHNbyyxkgV3+TysP6YsbeKb8wZFBPJjROGceP4js+yCcO5edJwbp0ygjUzR3ebdQoLtj6vuaFQtNMIyb2p03VumjCM5ROHsWrqSNbMGM3A6AiinXY2rF3GN6aMwGlT8Wg6r31xhhm/e5M1f/mYupb2bjPTQBQhGJcykKtGDum2MUQoWK7h0YxtEAOn3MGQRuv2I4QRUBdhU7l+bCaDY6OQSKpbXCBhcJwx28waGMszt17Fy2uu7fJ5Zc1iXrlrMWvnTvT75IdDYrThcxkf4eC3N8/v8Tp/uWsx/3b9LL8bQtqAGF69+zr2/8tt/HjRNKaa2qEPj53n4U37Q3o2l2SaCfwiGKcrarn+mQ/YerowsKhXvLrO0dIqzlbW4QrY0kqXRlqkFrcHVREsGJ4GAm4an4VNUSiobaSx3U2ETSXSbvN/nDbVsJWpRsZth00NyzK9asoIbIpCdUs7J8pqcPZyHZuZNU6aDy3CbmNCWiK/WDqbDWuX8Z254/Hqhod0e5DkZlIasdxhm2YCvwjG5/ml5FXVc6K8NrCoV5raPXz79U9Z9PQ6ntr5JYW1jbR5vLR5vJwsr+X2VzbT2O5mSHwMs7KSEcCtU0eSHBtFTYuLn27YS1F9My5zqt7m8fJlcRVvHjqL26shpZG5x7rIIDk2imlDB+HRdH62YS8nymqN65h7rp2vbuDVnFNUmlns3F6NXfml1La0o5kb3sY6HcY4ZwZsBHt5dCl5ad9JfrhuV1gJB0KduvhRzaiZ3pfE3altaaeiqZXyxlZ+umEfD286QKzTTpTdRkVTKx5dJ8Jm45uzxjDEdFpNj4/hu/Mm8OutB3nvyDl255dyy+RsBsVEsiOvmAOFFUgpKapr4sfXzvBHpwYdzwLcFyLtdu6ZM54jJdXkVzew8I/vsnziMEYNTiC3uIotpwpp92jcNrWIl9cs5pPTF1nz6scMT4znn+eOJzspnkNFVfxqaw52VeEbk0cQFcSnRZM6b+fm8WVJFd+6YhzTO+0jFwqWW9rScVnct2AiN4zPCizqlazEOD6+bwU/WjSNGKcdKSUNbS7KTI1+RkIsz9x2FT++doZ/jaMqggevnsoLd1xDalw0Na3tvLDvBL/55CAHCiuIdtp4bPlc7r9yMooQOFWFSLsNu6qQkRDX41opa2AsTlUlxmknzulAmJOWO6aN4m/fWsKEtETaPF7ePJzHo1ty+OhEAQJ48Kop/G7lAmyqwvCkOOYOS+VsVR0//GA3N//5Ix79OAenTeU/l83hn+dN6LZzVK9Y7xmBMPZP81maFYvOMrq53WJ9q4utpwupaG4jym5jeGI887NTcdoM17nO15RmKFCTy82ucyVcrGvCrir+tVtcpAO7uYuEputUNrVxsKiSxaOH4rTZut2/y6txoKAcp01lZmayX7DSzOPY7vWyv6CcvMp6PLrO4Jgo5g1PZXBslH99punGdpVnK+s4VFRFfVs7qbHRzM9OIzkuCrsavJv26joPb9zPFxcreONb1/cY5BHo2BNpFzxzm8aUIWEI7VIxrASGLg1zFtWbR5IPaap+fHVELzMvaXpz9fUy+Qb+nlqi9N+feR0EijCuF4iUEi2E43pCmgp0XUqiHfYe7zdQaFEOG1vvW86cYSnWu0fdNEmEM+vBN9VXjEx2Pi+m7rfcFWF2l746ai91hOnN1Re+qXZPCLPcfx2l9wTbIsTjekIIYzO9uAhH0Pv1IRAIoaIIm3Whtbg8bD5ZELLOrJ+ekZ30n1axLLSNJy5w91+3hp3Oth+jtypraCa/qr6bdSMULAutrtUwo1jJjt1PVzRd8sMPdrPwyfe4WBuaaaYzloU2IXUgUQ4bSRZMM/10RWJEzbR5vF9P1Mz0jGTW33MTq6aODCzqJ0QExkTEoapBF+I9YVlo0Q47s4elfqVBd//bURXBQ9dO5/cr55Nt7lBvBctC6+fSUcysDndOH429B2emYFgWmi4lZY0tYeXU76cDQ1fa83ozGJaFVt/qYsULG/nZhj0h2Y366YpPNdfQ5vL7Y1rFstA0KWlsd7PxRAF1lzEtxd8LXl3nT3uOsfLPH1Hd3BbWAtuy0AZEOpmVkUxNSzuf54efPvDvEWlubvT77bl8cbGiixeZFSwLza4q/Peqhby4ehELR6YHFvfTB5qu82rOKUobWrht6sgeXdNDwbLQAOIjHKycPKKL72NxfTM7z5WQW1zVbVcLr6ZztrKOw0WVFNQ0dlPdNLvcHCmu4mhpdbcNfDyazunyWg4VVZJfbezk1JnGdjdHSqo5XlbTzczv0XTyquqN69Y2dhlDpJTUtLSRW1RFbnEVNS3tXdLxejSdPPOeC2sbu3h86VJS29LO4aJKjpRUddtWzKPpnDOvW1TX5Feuq0Jwz5zxvHTntfxm+bywnHroyZ42INLJpxZNM15NZ9nzG9hfUI4iBMsmDOPFO69FVQwH0eNl1Vz15Ptouo7TpvLOP93AldlGK3V5NSY/9gYVTa0IYSR3Xv/Py/1v4K5zJdz60iZcXo34SCcb1y5jYloSmA/vmiff52hpNULAkrGZvP6tJf772nyygG++9gkeTWNApJNDP1pNYrTxonl1nfl/eJczlXVgxt399e7r/Vr3Vw6c5Ecf7MGjazhVleM/u4ukGKNluDWNJc+sJ7fYSN97z5zx/NfN8/zWgw+Pneeev23DrWnYFYXtD9zChNREhDDiGAzzUd+2f5dX4/63d/Di/p4C5QPwmtEpVlDMhJtLx2UyI8PI9duBJC7CwfzhqczITGZBdhrJMR1GP1UIVk7KZmZmMrMyklk4omuw4qDYSGZnpTAjI5k5WSnd/C2vG5th1M1M8b8IPtLio5mblcLMjGTmD0/r5rW1cEQaMzIGMyszmQXD07q8pMOT4pk7zKi7aNTQgJzJRlY832+dnG68RD4yB8Yxb3gqMzKSuWbkUAZ1+r0+009fAsOcZTb04j8ivJoun9hxmH/fuA+3phNhU3n/nhtZMjbTko3IZ2eT+KzaHTemSyMkSJo3rZqeTT68um50P2Zqh87BC53td8HqquZ1e6tr62T3kqa12t91BexU5aunS2MTBcNCbpRJMx2Fr8sMrNv5usL08Qz9SRq0uj1c8fu3OV5WA6aT8Pbv3WJY3AFS46L9P0aTkh1hZC5QzJtzqGq3N0kxXdx87miBRkibouCwqf66nfGdN5S6nQVGD3U7v4TCTJbmsKk95q9UzeBJp001Paw6yoSZjqK3up2v69uYyCpVze1UNndExSpCMCTBcHpShDCCKnzNX9Mlb+Xm0dAe+hZZ/VxedCk5XFTZZZOHqUMGER9hDA2KMF2UfZ62uqmmem73MTxhGOj6uXRqW9p5cueX/gQ7qiJYPX0UDpvRsBQBxEQ4+OnimdjN1ubVjYC6YyXVuLXQggr6uXSklDS7PPxsw172FpT7e7rUuGiuGTXU3/0rmP37mhmjucJ0K5Pm3tQ3/ulD3sk9R5vb4x9YZf/nsn58kx2PplNU18xPPtzN64fO4PZqCHOS84+zx5FhRq0CCCkNeUoJu84Vs/yFjTR2mmo6VIXZWSk8vmI+IwcldJmB9XPp6FLS4vaw/uh5frn5QJdN1FVFsGjkUD5cu8yIVTDr+IWGuZJff+w897613b99pDCn4aqikBYXTYyzZz+9fsLD7dWpbmmj3tT6+wRmUxSmpCfx5reXMiyxq8d0F6FJc4fbj04W8G8b9nGuut6/vsJnA/JX7edyIWVHri4hBJF2lSVjMnn29qtJiunYsdhHF6HhW3TqOmUNLTy+7TB//eI0bR7vJTmo/m/B/2iDPQZh+IGEiq83sykKidERPLFyAYvHZBAX4egmMHoSWmfcXo1TFXVsP1tEbnEVhXVNNLe7/Tv3/b3h8Xhwuzs23+sNIQRRkVEhjf2RdhvxkQ7GpgxkVkYy14/NYECks5uioDN9Cs2HNH3kNV1HJ4Q37X8pZeVlnDt3DhnkpVVtKrNmzcJuC557uWPO0Lu7eiD/Fw57MGmA/G/zAAAAAElFTkSuQmCC;" vertex="1" parent="1">
          <mxGeometry x="287.28" y="808" width="59.45" height="60" as="geometry" />
        </mxCell>
        <mxCell id="Qyl7MHK5gURJybowoytH-26" value="" style="whiteSpace=wrap;html=1;dashed=1;" vertex="1" parent="1">
          <mxGeometry x="427" y="528" width="100" height="110" as="geometry" />
        </mxCell>
        <mxCell id="Qyl7MHK5gURJybowoytH-27" value="" style="whiteSpace=wrap;html=1;shape=image;labelBackgroundColor=default;verticalAlign=top;verticalLabelPosition=bottom;aspect=fixed;points=[];image=img/lib/azure2/compute/Virtual_Machine.svg;" vertex="1" parent="1">
          <mxGeometry x="457.5" y="558.4200000000001" width="38.42" height="52.58" as="geometry" />
        </mxCell>
        <mxCell id="Qyl7MHK5gURJybowoytH-28" value="" style="whiteSpace=wrap;html=1;dashed=1;" vertex="1" parent="1">
          <mxGeometry x="417" y="668" width="120" height="230" as="geometry" />
        </mxCell>
        <mxCell id="Qyl7MHK5gURJybowoytH-30" value="" style="whiteSpace=wrap;html=1;dashed=1;" vertex="1" parent="1">
          <mxGeometry x="107" y="661" width="130" height="236" as="geometry" />
        </mxCell>
        <mxCell id="Qyl7MHK5gURJybowoytH-31" value="" style="image;aspect=fixed;html=1;points=[];align=center;fontSize=12;image=img/lib/azure2/networking/Load_Balancers.svg;" vertex="1" parent="1">
          <mxGeometry x="137" y="751" width="48" height="48" as="geometry" />
        </mxCell>
        <mxCell id="Qyl7MHK5gURJybowoytH-32" value="" style="shape=partialRectangle;whiteSpace=wrap;html=1;bottom=0;right=0;fillColor=none;rotation=0;strokeWidth=5;strokeColor=#B3B3B3;" vertex="1" parent="1">
          <mxGeometry x="337" y="588" width="90" height="90" as="geometry" />
        </mxCell>
        <mxCell id="Qyl7MHK5gURJybowoytH-33" value="" style="endArrow=none;html=1;rounded=0;entryX=0.574;entryY=0.466;entryDx=0;entryDy=0;entryPerimeter=0;strokeWidth=5;strokeColor=#B3B3B3;" edge="1" parent="1">
          <mxGeometry width="50" height="50" relative="1" as="geometry">
            <mxPoint x="336" y="738" as="sourcePoint" />
            <mxPoint x="335.65" y="806.6" as="targetPoint" />
          </mxGeometry>
        </mxCell>
        <mxCell id="Qyl7MHK5gURJybowoytH-34" value="" style="endArrow=none;html=1;rounded=0;strokeWidth=5;strokeColor=#d97517;" edge="1" parent="1">
          <mxGeometry width="50" height="50" relative="1" as="geometry">
            <mxPoint x="183" y="698" as="sourcePoint" />
            <mxPoint x="287" y="698" as="targetPoint" />
          </mxGeometry>
        </mxCell>
        <mxCell id="Qyl7MHK5gURJybowoytH-35" value="" style="endArrow=none;html=1;rounded=0;exitX=0.583;exitY=0.091;exitDx=0;exitDy=0;exitPerimeter=0;strokeWidth=5;strokeColor=#33FF33;" edge="1" parent="1">
          <mxGeometry width="50" height="50" relative="1" as="geometry">
            <mxPoint x="343" y="722" as="sourcePoint" />
            <mxPoint x="443" y="722" as="targetPoint" />
          </mxGeometry>
        </mxCell>
        <mxCell id="Qyl7MHK5gURJybowoytH-36" value="" style="endArrow=none;html=1;rounded=0;exitX=0.583;exitY=0.091;exitDx=0;exitDy=0;exitPerimeter=0;strokeWidth=5;strokeColor=#33FF33;" edge="1" parent="1">
          <mxGeometry width="50" height="50" relative="1" as="geometry">
            <mxPoint x="345" y="854" as="sourcePoint" />
            <mxPoint x="445" y="854" as="targetPoint" />
          </mxGeometry>
        </mxCell>
        <mxCell id="Qyl7MHK5gURJybowoytH-37" value="" style="endArrow=none;html=1;rounded=0;exitX=0.583;exitY=0.091;exitDx=0;exitDy=0;exitPerimeter=0;strokeWidth=5;strokeColor=#d97517;" edge="1" parent="1">
          <mxGeometry width="50" height="50" relative="1" as="geometry">
            <mxPoint x="190" y="854" as="sourcePoint" />
            <mxPoint x="290" y="854" as="targetPoint" />
          </mxGeometry>
        </mxCell>
        <mxCell id="Qyl7MHK5gURJybowoytH-29" value="" style="image;aspect=fixed;html=1;points=[];align=center;fontSize=12;image=img/lib/azure2/networking/Load_Balancers.svg;" vertex="1" parent="1">
          <mxGeometry x="452.71" y="749" width="48" height="48" as="geometry" />
        </mxCell>
        <mxCell id="Qyl7MHK5gURJybowoytH-41" value="MGMT" style="text;strokeColor=none;align=center;fillColor=none;html=1;verticalAlign=middle;whiteSpace=wrap;rounded=0;fontStyle=1" vertex="1" parent="1">
          <mxGeometry x="454" y="608" width="45" height="20" as="geometry" />
        </mxCell>
        <mxCell id="Qyl7MHK5gURJybowoytH-42" value="Private (Trust)" style="text;strokeColor=none;align=center;fillColor=none;html=1;verticalAlign=middle;whiteSpace=wrap;rounded=0;fontStyle=1" vertex="1" parent="1">
          <mxGeometry x="437" y="670" width="90" height="20" as="geometry" />
        </mxCell>
        <mxCell id="Qyl7MHK5gURJybowoytH-43" value="Public (UN Trust)" style="text;strokeColor=none;align=center;fillColor=none;html=1;verticalAlign=middle;whiteSpace=wrap;rounded=0;fontStyle=1" vertex="1" parent="1">
          <mxGeometry x="121" y="660" width="106" height="20" as="geometry" />
        </mxCell>
        <mxCell id="Qyl7MHK5gURJybowoytH-44" value="Egress LB" style="text;strokeColor=none;align=center;fillColor=none;html=1;verticalAlign=middle;whiteSpace=wrap;rounded=0;fontStyle=1" vertex="1" parent="1">
          <mxGeometry x="440" y="733" width="80" height="20" as="geometry" />
        </mxCell>
        <mxCell id="Qyl7MHK5gURJybowoytH-45" value="Ingress LB" style="text;strokeColor=none;align=center;fillColor=none;html=1;verticalAlign=middle;whiteSpace=wrap;rounded=0;fontStyle=1" vertex="1" parent="1">
          <mxGeometry x="123" y="732" width="80" height="20" as="geometry" />
        </mxCell>
        <mxCell id="Qyl7MHK5gURJybowoytH-46" value="eth1/0" style="text;strokeColor=none;align=center;fillColor=none;html=1;verticalAlign=middle;whiteSpace=wrap;rounded=0;fontStyle=1" vertex="1" parent="1">
          <mxGeometry x="337" y="661" width="40" height="20" as="geometry" />
        </mxCell>
        <mxCell id="Qyl7MHK5gURJybowoytH-47" value="eth1/1" style="text;strokeColor=none;align=center;fillColor=none;html=1;verticalAlign=middle;whiteSpace=wrap;rounded=0;fontStyle=1" vertex="1" parent="1">
          <mxGeometry x="250" y="675" width="40" height="20" as="geometry" />
        </mxCell>
        <mxCell id="Qyl7MHK5gURJybowoytH-48" value="eth1/2" style="text;strokeColor=none;align=center;fillColor=none;html=1;verticalAlign=middle;whiteSpace=wrap;rounded=0;fontStyle=1" vertex="1" parent="1">
          <mxGeometry x="347" y="698" width="40" height="20" as="geometry" />
        </mxCell>
        <mxCell id="Qyl7MHK5gURJybowoytH-49" value="eth1/2" style="text;strokeColor=none;align=center;fillColor=none;html=1;verticalAlign=middle;whiteSpace=wrap;rounded=0;fontStyle=1" vertex="1" parent="1">
          <mxGeometry x="347" y="828" width="40" height="20" as="geometry" />
        </mxCell>
        <mxCell id="Qyl7MHK5gURJybowoytH-50" value="eth1/1" style="text;strokeColor=none;align=center;fillColor=none;html=1;verticalAlign=middle;whiteSpace=wrap;rounded=0;fontStyle=1" vertex="1" parent="1">
          <mxGeometry x="250" y="828" width="40" height="20" as="geometry" />
        </mxCell>
        <mxCell id="Qyl7MHK5gURJybowoytH-51" value="eth1/0" style="text;strokeColor=none;align=center;fillColor=none;html=1;verticalAlign=middle;whiteSpace=wrap;rounded=0;fontStyle=1" vertex="1" parent="1">
          <mxGeometry x="337" y="788" width="40" height="20" as="geometry" />
        </mxCell>
        <mxCell id="Qyl7MHK5gURJybowoytH-52" value="&lt;span style=&quot;color: rgb(50, 49, 48); font-family: &amp;quot;Segoe UI&amp;quot;, &amp;quot;Segoe UI Web (West European)&amp;quot;, &amp;quot;Segoe UI&amp;quot;, -apple-system, BlinkMacSystemFont, Roboto, &amp;quot;Helvetica Neue&amp;quot;, sans-serif; font-size: 13px; text-align: left; text-wrap: nowrap; background-color: rgb(255, 255, 255);&quot;&gt;10.189.204.40&lt;/span&gt;" style="text;strokeColor=none;align=center;fillColor=none;html=1;verticalAlign=middle;whiteSpace=wrap;rounded=0;fontStyle=1" vertex="1" parent="1">
          <mxGeometry x="447" y="800" width="62" height="30" as="geometry" />
        </mxCell>
        <mxCell id="Qyl7MHK5gURJybowoytH-54" value=".36" style="text;strokeColor=none;align=center;fillColor=none;html=1;verticalAlign=middle;whiteSpace=wrap;rounded=0;fontStyle=1" vertex="1" parent="1">
          <mxGeometry x="347" y="858" width="50" height="20" as="geometry" />
        </mxCell>
        <mxCell id="Qyl7MHK5gURJybowoytH-56" value=".37" style="text;strokeColor=none;align=center;fillColor=none;html=1;verticalAlign=middle;whiteSpace=wrap;rounded=0;fontStyle=1" vertex="1" parent="1">
          <mxGeometry x="337" y="728" width="50" height="20" as="geometry" />
        </mxCell>
        <mxCell id="Qyl7MHK5gURJybowoytH-57" value="&lt;span style=&quot;color: rgb(50, 49, 48); font-family: &amp;quot;Segoe UI&amp;quot;, &amp;quot;Segoe UI Web (West European)&amp;quot;, &amp;quot;Segoe UI&amp;quot;, -apple-system, BlinkMacSystemFont, Roboto, &amp;quot;Helvetica Neue&amp;quot;, sans-serif; font-size: 13px; text-align: left; text-wrap: nowrap; background-color: rgb(255, 255, 255);&quot;&gt;40.68.190.147&lt;/span&gt;" style="text;strokeColor=none;align=center;fillColor=none;html=1;verticalAlign=middle;whiteSpace=wrap;rounded=0;fontStyle=1" vertex="1" parent="1">
          <mxGeometry x="140" y="794" width="60" height="30" as="geometry" />
        </mxCell>
        <mxCell id="Qyl7MHK5gURJybowoytH-58" value=".21" style="text;strokeColor=none;align=center;fillColor=none;html=1;verticalAlign=middle;whiteSpace=wrap;rounded=0;fontStyle=1" vertex="1" parent="1">
          <mxGeometry x="252" y="858" width="35" height="15" as="geometry" />
        </mxCell>
        <mxCell id="Qyl7MHK5gURJybowoytH-59" value=".20" style="text;strokeColor=none;align=center;fillColor=none;html=1;verticalAlign=middle;whiteSpace=wrap;rounded=0;fontStyle=1" vertex="1" parent="1">
          <mxGeometry x="262" y="699" width="35" height="15" as="geometry" />
        </mxCell>
        <mxCell id="Qyl7MHK5gURJybowoytH-60" value=".4" style="text;strokeColor=none;align=center;fillColor=none;html=1;verticalAlign=middle;whiteSpace=wrap;rounded=0;fontStyle=1" vertex="1" parent="1">
          <mxGeometry x="309.5" y="663" width="35" height="15" as="geometry" />
        </mxCell>
        <mxCell id="Qyl7MHK5gURJybowoytH-61" value=".5" style="text;strokeColor=none;align=center;fillColor=none;html=1;verticalAlign=middle;whiteSpace=wrap;rounded=0;fontStyle=1" vertex="1" parent="1">
          <mxGeometry x="307.5" y="792" width="35" height="15" as="geometry" />
        </mxCell>
        <mxCell id="Qyl7MHK5gURJybowoytH-62" value=".6" style="text;strokeColor=none;align=center;fillColor=none;html=1;verticalAlign=middle;whiteSpace=wrap;rounded=0;fontStyle=1" vertex="1" parent="1">
          <mxGeometry x="419.5" y="620" width="35" height="15" as="geometry" />
        </mxCell>
        <mxCell id="Qyl7MHK5gURJybowoytH-64" value="" style="image;aspect=fixed;html=1;points=[];align=center;fontSize=12;image=img/lib/azure2/networking/Virtual_Networks.svg;" vertex="1" parent="1">
          <mxGeometry x="101" y="466" width="40.2" height="24" as="geometry" />
        </mxCell>
        <mxCell id="Qyl7MHK5gURJybowoytH-65" value="10.189.204.0/24" style="text;strokeColor=none;align=center;fillColor=none;html=1;verticalAlign=middle;whiteSpace=wrap;rounded=0;fontStyle=1" vertex="1" parent="1">
          <mxGeometry x="92.1" y="485" width="74.9" height="30" as="geometry" />
        </mxCell>
        <mxCell id="Qyl7MHK5gURJybowoytH-66" value="" style="whiteSpace=wrap;html=1;strokeColor=#4D4D4D;dashed=1;" vertex="1" parent="1">
          <mxGeometry x="677" y="478" width="960" height="500" as="geometry" />
        </mxCell>
        <mxCell id="Qyl7MHK5gURJybowoytH-67" value="" style="image;aspect=fixed;html=1;points=[];align=center;fontSize=12;image=img/lib/azure2/networking/Virtual_WANs.svg;" vertex="1" parent="1">
          <mxGeometry x="1124.5" y="558.4200000000001" width="65" height="64" as="geometry" />
        </mxCell>
        <mxCell id="Qyl7MHK5gURJybowoytH-82" style="edgeStyle=none;rounded=0;orthogonalLoop=1;jettySize=auto;html=1;startArrow=classic;startFill=1;strokeWidth=1;" edge="1" parent="1" source="Qyl7MHK5gURJybowoytH-68" target="Qyl7MHK5gURJybowoytH-67">
          <mxGeometry relative="1" as="geometry" />
        </mxCell>
        <mxCell id="Qyl7MHK5gURJybowoytH-68" value="" style="image;aspect=fixed;html=1;points=[];align=center;fontSize=12;image=img/lib/azure2/networking/Virtual_WAN_Hub.svg;" vertex="1" parent="1">
          <mxGeometry x="865" y="706" width="65" height="64" as="geometry" />
        </mxCell>
        <mxCell id="Qyl7MHK5gURJybowoytH-69" value="" style="image;aspect=fixed;html=1;points=[];align=center;fontSize=12;image=img/lib/azure2/networking/Virtual_WAN_Hub.svg;" vertex="1" parent="1">
          <mxGeometry x="1377" y="706" width="65" height="64" as="geometry" />
        </mxCell>
        <mxCell id="Qyl7MHK5gURJybowoytH-70" value="Bastion-VNET" style="ellipse;whiteSpace=wrap;html=1;fontStyle=1" vertex="1" parent="1">
          <mxGeometry x="737" y="518" width="90" height="90" as="geometry" />
        </mxCell>
        <mxCell id="Qyl7MHK5gURJybowoytH-71" value="VDI-VNET" style="ellipse;whiteSpace=wrap;html=1;fontStyle=1" vertex="1" parent="1">
          <mxGeometry x="917" y="518" width="90" height="90" as="geometry" />
        </mxCell>
        <mxCell id="Qyl7MHK5gURJybowoytH-72" value="APPGW-VNET" style="ellipse;whiteSpace=wrap;html=1;fontStyle=1" vertex="1" parent="1">
          <mxGeometry x="737" y="848" width="90" height="90" as="geometry" />
        </mxCell>
        <mxCell id="Qyl7MHK5gURJybowoytH-73" value="Dev-Non-PCI-VNET" style="ellipse;whiteSpace=wrap;html=1;fontStyle=1" vertex="1" parent="1">
          <mxGeometry x="1287" y="523" width="90" height="90" as="geometry" />
        </mxCell>
        <mxCell id="Qyl7MHK5gURJybowoytH-74" value="SIT-Non-PCI-VNET" style="ellipse;whiteSpace=wrap;html=1;fontStyle=1" vertex="1" parent="1">
          <mxGeometry x="1467" y="523" width="90" height="90" as="geometry" />
        </mxCell>
        <mxCell id="Qyl7MHK5gURJybowoytH-75" value="&lt;b&gt;Shared-VNET&lt;/b&gt;" style="ellipse;whiteSpace=wrap;html=1;" vertex="1" parent="1">
          <mxGeometry x="1277" y="843" width="90" height="90" as="geometry" />
        </mxCell>
        <mxCell id="Qyl7MHK5gURJybowoytH-76" value="Dev-ARO-VNET" style="ellipse;whiteSpace=wrap;html=1;fontStyle=1" vertex="1" parent="1">
          <mxGeometry x="1477" y="843" width="90" height="90" as="geometry" />
        </mxCell>
        <mxCell id="Qyl7MHK5gURJybowoytH-77" value="DMZ-VNET" style="ellipse;whiteSpace=wrap;html=1;fontStyle=1" vertex="1" parent="1">
          <mxGeometry x="917" y="848" width="90" height="90" as="geometry" />
        </mxCell>
        <mxCell id="Qyl7MHK5gURJybowoytH-78" value="SIT-ARO-VNET" style="ellipse;whiteSpace=wrap;html=1;fontStyle=1" vertex="1" parent="1">
          <mxGeometry x="1527" y="675" width="90" height="90" as="geometry" />
        </mxCell>
        <mxCell id="Qyl7MHK5gURJybowoytH-79" value="Hub1&lt;div&gt;10.189.200.0/23&lt;/div&gt;" style="text;strokeColor=none;align=center;fillColor=none;html=1;verticalAlign=middle;whiteSpace=wrap;rounded=0;fontStyle=1" vertex="1" parent="1">
          <mxGeometry x="841" y="774" width="110" height="30" as="geometry" />
        </mxCell>
        <mxCell id="Qyl7MHK5gURJybowoytH-80" value="Hub2&lt;div&gt;10.189.202.0/23&lt;/div&gt;" style="text;strokeColor=none;align=center;fillColor=none;html=1;verticalAlign=middle;whiteSpace=wrap;rounded=0;fontStyle=1" vertex="1" parent="1">
          <mxGeometry x="1357" y="770" width="110" height="30" as="geometry" />
        </mxCell>
        <mxCell id="Qyl7MHK5gURJybowoytH-83" style="edgeStyle=none;rounded=0;orthogonalLoop=1;jettySize=auto;html=1;startArrow=classic;startFill=1;strokeWidth=1;" edge="1" parent="1" source="Qyl7MHK5gURJybowoytH-69" target="Qyl7MHK5gURJybowoytH-67">
          <mxGeometry relative="1" as="geometry">
            <mxPoint x="940" y="730" as="sourcePoint" />
            <mxPoint x="1135" y="619" as="targetPoint" />
          </mxGeometry>
        </mxCell>
        <mxCell id="Qyl7MHK5gURJybowoytH-84" style="edgeStyle=none;rounded=0;orthogonalLoop=1;jettySize=auto;html=1;entryX=0.393;entryY=1;entryDx=0;entryDy=0;entryPerimeter=0;startArrow=classic;startFill=1;strokeWidth=1;" edge="1" parent="1" source="Qyl7MHK5gURJybowoytH-68" target="Qyl7MHK5gURJybowoytH-71">
          <mxGeometry relative="1" as="geometry">
            <mxPoint x="940" y="730" as="sourcePoint" />
            <mxPoint x="1135" y="619" as="targetPoint" />
          </mxGeometry>
        </mxCell>
        <mxCell id="Qyl7MHK5gURJybowoytH-85" style="edgeStyle=none;rounded=0;orthogonalLoop=1;jettySize=auto;html=1;entryX=0.393;entryY=1;entryDx=0;entryDy=0;entryPerimeter=0;startArrow=classic;startFill=1;strokeWidth=1;" edge="1" parent="1" source="Qyl7MHK5gURJybowoytH-68">
          <mxGeometry relative="1" as="geometry">
            <mxPoint x="767" y="698" as="sourcePoint" />
            <mxPoint x="808" y="600" as="targetPoint" />
          </mxGeometry>
        </mxCell>
        <mxCell id="Qyl7MHK5gURJybowoytH-86" style="edgeStyle=none;rounded=0;orthogonalLoop=1;jettySize=auto;html=1;startArrow=classic;startFill=1;strokeWidth=1;" edge="1" parent="1" target="Qyl7MHK5gURJybowoytH-68">
          <mxGeometry relative="1" as="geometry">
            <mxPoint x="816.5" y="859" as="sourcePoint" />
            <mxPoint x="747.5" y="753" as="targetPoint" />
          </mxGeometry>
        </mxCell>
        <mxCell id="Qyl7MHK5gURJybowoytH-87" style="edgeStyle=none;rounded=0;orthogonalLoop=1;jettySize=auto;html=1;entryX=0.393;entryY=1;entryDx=0;entryDy=0;entryPerimeter=0;exitX=0.356;exitY=0.059;exitDx=0;exitDy=0;exitPerimeter=0;startArrow=classic;startFill=1;strokeWidth=1;" edge="1" parent="1" source="Qyl7MHK5gURJybowoytH-77">
          <mxGeometry relative="1" as="geometry">
            <mxPoint x="986" y="851" as="sourcePoint" />
            <mxPoint x="917" y="745" as="targetPoint" />
          </mxGeometry>
        </mxCell>
        <mxCell id="Qyl7MHK5gURJybowoytH-88" style="edgeStyle=none;rounded=0;orthogonalLoop=1;jettySize=auto;html=1;exitX=0.356;exitY=0.059;exitDx=0;exitDy=0;exitPerimeter=0;startArrow=classic;startFill=1;strokeWidth=1;" edge="1" parent="1" target="Qyl7MHK5gURJybowoytH-69">
          <mxGeometry relative="1" as="geometry">
            <mxPoint x="1319" y="846" as="sourcePoint" />
            <mxPoint x="1287" y="738" as="targetPoint" />
          </mxGeometry>
        </mxCell>
        <mxCell id="Qyl7MHK5gURJybowoytH-89" style="edgeStyle=none;rounded=0;orthogonalLoop=1;jettySize=auto;html=1;startArrow=classic;startFill=1;strokeWidth=1;" edge="1" parent="1" source="Qyl7MHK5gURJybowoytH-69">
          <mxGeometry relative="1" as="geometry">
            <mxPoint x="1427" y="684" as="sourcePoint" />
            <mxPoint x="1491" y="608" as="targetPoint" />
          </mxGeometry>
        </mxCell>
        <mxCell id="Qyl7MHK5gURJybowoytH-90" style="edgeStyle=none;rounded=0;orthogonalLoop=1;jettySize=auto;html=1;entryX=0.03;entryY=0.411;entryDx=0;entryDy=0;entryPerimeter=0;startArrow=classic;startFill=1;strokeWidth=1;" edge="1" parent="1" source="Qyl7MHK5gURJybowoytH-69" target="Qyl7MHK5gURJybowoytH-78">
          <mxGeometry relative="1" as="geometry">
            <mxPoint x="1440" y="716" as="sourcePoint" />
            <mxPoint x="1501" y="618" as="targetPoint" />
          </mxGeometry>
        </mxCell>
        <mxCell id="Qyl7MHK5gURJybowoytH-91" style="edgeStyle=none;rounded=0;orthogonalLoop=1;jettySize=auto;html=1;exitX=0.974;exitY=0.677;exitDx=0;exitDy=0;exitPerimeter=0;startArrow=classic;startFill=1;strokeWidth=1;" edge="1" parent="1" source="Qyl7MHK5gURJybowoytH-69" target="Qyl7MHK5gURJybowoytH-76">
          <mxGeometry relative="1" as="geometry">
            <mxPoint x="1452" y="741" as="sourcePoint" />
            <mxPoint x="1540" y="722" as="targetPoint" />
          </mxGeometry>
        </mxCell>
        <mxCell id="Qyl7MHK5gURJybowoytH-92" style="edgeStyle=none;rounded=0;orthogonalLoop=1;jettySize=auto;html=1;entryX=0.674;entryY=0.937;entryDx=0;entryDy=0;entryPerimeter=0;startArrow=classic;startFill=1;strokeWidth=1;" edge="1" parent="1" target="Qyl7MHK5gURJybowoytH-73">
          <mxGeometry relative="1" as="geometry">
            <mxPoint x="1407" y="718" as="sourcePoint" />
            <mxPoint x="1501" y="618" as="targetPoint" />
          </mxGeometry>
        </mxCell>
        <mxCell id="Qyl7MHK5gURJybowoytH-93" style="edgeStyle=none;rounded=0;orthogonalLoop=1;jettySize=auto;html=1;entryX=0.031;entryY=0.302;entryDx=0;entryDy=0;entryPerimeter=0;startArrow=classic;startFill=1;" edge="1" parent="1" source="Qyl7MHK5gURJybowoytH-1" target="Qyl7MHK5gURJybowoytH-68">
          <mxGeometry relative="1" as="geometry" />
        </mxCell>
        <mxCell id="Qyl7MHK5gURJybowoytH-94" value=".56.0/23" style="text;strokeColor=none;align=center;fillColor=none;html=1;verticalAlign=middle;whiteSpace=wrap;rounded=0;fontStyle=1" vertex="1" parent="1">
          <mxGeometry x="1367" y="593" width="50" height="20" as="geometry" />
        </mxCell>
        <mxCell id="Qyl7MHK5gURJybowoytH-95" value=".66.0/23" style="text;strokeColor=none;align=center;fillColor=none;html=1;verticalAlign=middle;whiteSpace=wrap;rounded=0;fontStyle=1" vertex="1" parent="1">
          <mxGeometry x="1527" y="611" width="50" height="20" as="geometry" />
        </mxCell>
        <mxCell id="Qyl7MHK5gURJybowoytH-96" value=".61.0/24" style="text;strokeColor=none;align=center;fillColor=none;html=1;verticalAlign=middle;whiteSpace=wrap;rounded=0;fontStyle=1" vertex="1" parent="1">
          <mxGeometry x="1352" y="913" width="50" height="20" as="geometry" />
        </mxCell>
        <mxCell id="Qyl7MHK5gURJybowoytH-97" value=".50.0/24" style="text;strokeColor=none;align=center;fillColor=none;html=1;verticalAlign=middle;whiteSpace=wrap;rounded=0;fontStyle=1" vertex="1" parent="1">
          <mxGeometry x="957" y="608" width="50" height="20" as="geometry" />
        </mxCell>
        <mxCell id="Qyl7MHK5gURJybowoytH-98" value=".150.0/24" style="text;strokeColor=none;align=center;fillColor=none;html=1;verticalAlign=middle;whiteSpace=wrap;rounded=0;fontStyle=1" vertex="1" parent="1">
          <mxGeometry x="957" y="622.4200000000001" width="50" height="20" as="geometry" />
        </mxCell>
        <mxCell id="Qyl7MHK5gURJybowoytH-99" value=".151.0/24" style="text;strokeColor=none;align=center;fillColor=none;html=1;verticalAlign=middle;whiteSpace=wrap;rounded=0;fontStyle=1" vertex="1" parent="1">
          <mxGeometry x="957" y="638" width="50" height="20" as="geometry" />
        </mxCell>
        <mxCell id="Qyl7MHK5gURJybowoytH-101" value="62.128/25" style="text;strokeColor=none;align=center;fillColor=none;html=1;verticalAlign=middle;whiteSpace=wrap;rounded=0;fontStyle=1" vertex="1" parent="1">
          <mxGeometry x="717" y="603" width="60" height="30" as="geometry" />
        </mxCell>
        <mxCell id="Qyl7MHK5gURJybowoytH-102" value="60.0/24" style="text;strokeColor=none;align=center;fillColor=none;html=1;verticalAlign=middle;whiteSpace=wrap;rounded=0;fontStyle=1" vertex="1" parent="1">
          <mxGeometry x="987" y="918" width="60" height="30" as="geometry" />
        </mxCell>
        <mxCell id="Qyl7MHK5gURJybowoytH-103" value="62.0/27" style="text;strokeColor=none;align=center;fillColor=none;html=1;verticalAlign=middle;whiteSpace=wrap;rounded=0;fontStyle=1" vertex="1" parent="1">
          <mxGeometry x="802" y="923" width="60" height="30" as="geometry" />
        </mxCell>
        <mxCell id="Qyl7MHK5gURJybowoytH-104" value=".64.0/24" style="text;strokeColor=none;align=center;fillColor=none;html=1;verticalAlign=middle;whiteSpace=wrap;rounded=0;fontStyle=1" vertex="1" parent="1">
          <mxGeometry x="1557" y="768" width="50" height="20" as="geometry" />
        </mxCell>
        <mxCell id="Qyl7MHK5gURJybowoytH-105" value=".54.0/24" style="text;strokeColor=none;align=center;fillColor=none;html=1;verticalAlign=middle;whiteSpace=wrap;rounded=0;fontStyle=1" vertex="1" parent="1">
          <mxGeometry x="1557" y="918" width="50" height="20" as="geometry" />
        </mxCell>
        <mxCell id="Qyl7MHK5gURJybowoytH-107" value="" style="shape=image;verticalLabelPosition=bottom;labelBackgroundColor=default;verticalAlign=top;aspect=fixed;imageAspect=0;image=data:image/png,iVBORw0KGgoAAAANSUhEUgAAAEYAAAAnCAYAAACyhj57AAAAAXNSR0IArs4c6QAAAARnQU1BAACxjwv8YQUAAAAJcEhZcwAAFiUAABYlAUlSJPAAABSESURBVGhDfZrpsiXHcd9/mVXdffY7+4ohBkMMuIsUQzbD1OLli00rHHoQvYRfwAwMH8HhL7YjbGAAORg2HQ6JIkTJBIYQRIgASMwKzH735XR3VaY/VJ87d0DAfeIf3eec7q6qrKxc/llilh0RhOHwwyvAn13K8N1XvzngOALI4bnc+ux9nqF9Av/w1j6f/HbJ7k6HoASNiOhwp2OWSbmlWQjnXp5x8StjquOBrnL2DT7ZMn72633e/ugJyQ/47tdP8Ce/d5pLU4jY0BtQYOnKX3+YePuDDe7cf8K5Uwv+9Htn+P0vVcScCS44lKfEQYXkwq4Jb72/x49/fh/J1ruYIV2Gtod8RBirB+HZ2W04r7rCIJBBQDJcuxYhO2zfbrnx00/ZWQ9giruDCDKgNCO4ORZ7quMwPjOiPtnQN85SnIe7Pe/f3eP2oz3cO86dqrl0asYiOuoJk9JHAVqruP2449F2T9slZqPA5bNTzs4VSR2eBQRMMogTopAksucNHz/t+XCzQTx3vnzyhN2bd9n/9BF52YKUWZRh8L4SCpRB4bg7PghGKTIyAZMiHCFABumcJ/d3uPnBOt1+hVAEIwIiWgTkg4650HlHqjI+UWRR0VdCF2C7TTzdzewujZR6xHvUE576oY86dBAQJRNwCagqQRXxhOcOMxuU3pEjGpNDRV9N6dYusHP6FcQ2HvuHf/O3vPs//w+f/P0/crCzAwqKo6vlc4iVYMr5cCENv31WMFEi9EZuIbWR1El5fqWERTrD0lPcIGFYgFwJqYIUnKRO505vgnkobWXD3Yp2ShFG0dCyiIOCe8YsE2ONu9AnAxWKDA1djUWEnkAKNXLhKpuXvo1svveu/+//+J9498c/Ye/eQ+hbXIygQhUVBdzyc4IpAl/pC4f/mZRGzIttaeoRYl5Wn5WOqxbh2LAkpcwbuOBoWY4qGJmMQXAIjuGYg2pENKAaECDn9GziTHArglN1HEOkPONeBA8GkhEMdQMRXCLmSog1D6vj3L/yh8jdn/wvf/3Va9z6+dtMukRlGcUIYogbcVhWZXae15iVZMokFf1xFHPoUibWNVmkqG+Gpm7KxJodvqcsW4pAUEQVEXAvGqEKoqX9MnwpimGGWKYG1Msgi9aF4R7DLOPuhBDK0vbyLsgIGcFLf0NN9mLv7sqcW1f+CLl1/bq//h9+yJ13fskCeOH4cV44eYKQE3m5pI4BM3tOY46ey5eVFxoEowGvK/qg3Fl/zLLPXH7hCqdPnkVXgjJfObFyiKCqoCAyTIQ7KkVY7pDdWN/a5PbdW6xvPOLUeMxLJ09Rp0R0RxxEI9khudH1PeZOUCWKoipIEEwMwQhumEaYLPC65pNHn/KLpwfcvfovkDuvveb/40c/4uNfvM00Z7556Ut858oVqq6j392hiRFbCcGLXjw7l9+LwjwzoClGmE7oxjU//+B9egl8/5/8MS++cIUoiud8xM6US1FBQhEM4sX7OSCh2A8EEeX+w/v87G9/ykcf/YoXjx/jey+9zKjvqazYjBAjyYwuZ9quJ+eMqlIFpYoBgmLC4VJKGsmTOfML5/i7927wk1sP+filP0Jlpcpa1jaW0bZD9vbxrS3yxiZ5fcDGJraxNWAb29zBN3fwzS3Y2oDNdXxrHdtap9/eKPbKMgjk3IP1BM9UOPUhoAaiOyFlQp8IXSb0RkxG7BOx6wldT2XOSJRGIwFB+ozst1TLDrZ3sM0N0vpjfPMJYXuD8cEOs36fabtHc7CD7mwim5voxhayvgUbG/jWBuztIO0SMcMc+jx4WvyZQXc3yAlNHdp1hLYltB3a9s8wdLSg3KddS+iWhG6JdkvoW8ipGGl3smXcEm4JsVyQM+SMWELygJQHGCSDlCElJCVIGcnFkgngOZO7Ful7pOvQvkPa0n6VWurcUaeOKrVUfUvsWkJXxhOHcYWuJaQeSX3xrg6GoHIk0nVxXA3TDJJREsEzwf0Loe4ohkhGJKNkgtvw38rrPGvj0NQOJmbwScP1F2N1rCybS3Htbe7oPWGDMVURlBJRf/7HkcHGKI66lNjVn7UmXvzjc02Xexwrdw8jOBIBf/YYNK24aorRWEW/gzE+mi4cvuXoaFftHv3/8w5Z9a3ESwnnwBIdRhZwVUxCAc8jE8iimMjh84f/SwSNuBSPFlTQlcKIC+qldXMhG5gLXcr0lgq8/x10lujN6DN0WWgNWnM6o3gnUTRUiCrmjtmR+Ge1fJ8NHaDc505+Dkb2TBbHiw/HJWChoiOSpKbzSJJAEv0CBDIVRkWWhqQjOh1xYIHHm3vs7C0RCWioiix8Nb+uxd3GmjCdE9eOwXSGri3QtfmAxXMIawt0cYywOIGunUAXx4fvC2hGECuyQxZB6oo4qglNBU0FdYXUNdp8BqNyDnWF1hGtI1JHdFwjoxqJZYazVrRSc6ANy2rKXhyzF5svxH5sOIgjlmHCQTVlr56yV03YoeLB9j7bBx0usQiH1fJCAKV1YS9E0omT+MUX8EuXsAsX8S+AXbyIX3hhwEX84gX0wjn05An2BXozdvZ2ebKzyVZasm0dW9axs4J37HjPDs+wK5ldSQUU7JHYs55l7mlzIjkcmPK4Nx64cj/W3G/G3I3NF+JeaLgXaj4ZcC/UfBoqHqI87hKtgXtZMXLn+uv+5qs/4vY7Nxg7nFpb49z5MyymU4KAIuScB3sxCLAkUdhhelDijGJNMo6Tzdhdtty6d5/druPUxfOcv3iBcdVQUsnB6GmJZI9SH6vc6zCUOJw2YXfnP/Obm/DgIYwamI2hrkHCH2BeIt0h0BqW6sq2lTWrDmpFGbI4JorHitwdkLbXuWc1H1/+Z8id16/7X7x6jVs3fsnYYTZumE1G1FHJqS8BmZUXuyitZXaXB5gKo8mEUTNGiYjr4H+M4vCK9Ls+QQz0Wgx0FSJqTkmoiiHtLdN2Hf2yJZgxqQJ1UEKMsPIkXgSDf0jbQXIIYfDmQPJXSG6oKDEEogrJMnupp3UgNlTViCZEKkBlJSVBQqDb3SFvr3PfR3z04veQu6+94X9x7UfcfOcGIzcunjzG5QtnmVcB6TvUHM+CayAH5fHONr+6fZNelW98+/d46fIVGh0jqTjDIkIhBD2kJVychJMslxAfCJTUoMfY61vu3L7Dbz/4iLEbXzl/lhOzyeFsqxviEEJE9K8Hz1moo2UHW9unWKbzJScSZT6bMm1q9toDfvP4IY/bjsnxs5w9/yKn104wryuaAFUNsVIMePDJPW6+/x7vb3Z8ePmfPi+YsSW+evE833zpRZq+xXZ20GwoEUKkVWW9b/n1o/ssY+T7f/LPufryK0QLaOLQxblzJL8qfI4EJZmhWgQjXvKtHJTOM7/+8AN+9pd/yZoK3zp7mpOjUVlaDjpQBIbgvHUoGAO6BAfLUyS7gIaIoozGE1DBxg0frD/m9tY25y5d5auvfIvTaydYxIpKjVA5EpwMPH70gLf/5mf81cf3+cdLf4AWn156EByq7FQHHWzs4E820CebhKcbhPVN/PE61V7LxCON1DRhjOSALXtYtrA8gOUSaZfElIgpDzBib8Q+E44g9s7IlUmsmdQ1VRBqMcLBPv50HR4/RR8/RR89Ha6fEB5DeFJQPYXJNpzo4IztcybtcXx/m9HWBnlni+X+Hm3fgcDx6ZgXjs0501RMcqLpE7HtkTZToZw8foK6iogqSCyTbDLMKkYEaoHaYYQyUaXBGOHU5kxCBckJEhEi4oHgSnQfYCXvMRvgRHPoU5nevsf7hHcJ+oSaExCigFsiijMSGONM3ZmaM6Zg5MbIYWwwMRglaDqYGizIzD0x80TVLQnZ2N3ZY2t7F3MhhkgwI+ZMM+RoIYMkp1t2pC6R88p4C1rU3Qp/IU5vPW3fYRiukMRIYrTe41oCLQmKIaRk5N7xPBhTs89HNoIodVVRaaTSUDoaYjGtZlgu5JHnhKU0pBoDF6NgATxIcYDFCaIKMRSP5TljKZfAOygxVCUuy4Gug63dJTvLjsL5Fa4pCMVYa03b9vQpo0FRBfVBWwqKMCQU3kJCuSYqhIDEgATFg2AKqKIhoCEiWuzQIfQIQsDcMDPygMLJFFjOmBkaAkZJOFMuBLcJmDqmkFfnIymIMzAUWTCDLieSJbL1BFWCBiw7Xcq0KdNbJnvGPJPMyS5kF5ZtIlmJuN0dZciLVh5kJU0dEkFxx31IBIfwIOGYOkQIdcBjoEdIJe0czkISIQkkhKxaEBRTxYKQg2BBMBWyCsm9cGuq5BDo3ArXm52Ui7B6g96hL4pYqEsBlRqRWCYsOhqM+azh2HxCUwWiKrGqoArkCDkKOQSyBtoMOwctXSqpqMQh8h0kggNa1TSzGdVsSpjN0NkcnS+Q2QKdz4mzKT4QSqFSqlGkGjdUswlxOiVOxwWzCXG6+m1CNZ1STyfU0wnVbEw1HVPNxoTZmHo2JtY1KWc8BHw8gcUcWVtD19YIa2vExTHi2hphDeICwgJkDj4Fn4BNFth0jk9nyGJOmE9YO3mck6eOsZiOmI0b5rMJo8mopBbjBh2P0KYh4Szbjmxl5sUdufXGa/7GtVe59c4Nptn58pkzvHLhAlXqSXv7xBDozHGJZAo799HD++zjfPNb3+byly4TNRZbcqh1JSwTFwKxLB3PaBBUiz93LwR3VsgK9+7e4f++9RYTgatnz7LWjA7JvJUdLGvmxvD+wXxlwE8BL2LiJEl4VLIGZDTh0f4Bj7d3OXf+Eldfvsq4qsh9W3JCiWRX9vYPePLoAbd+8z6/2tjj06vfR25ff83fvPYqN2/8kokLi6pmVlVUIljuCSHS51yyWS92Za9dksyYTmeMxxNCDEO+VeIWKIGGmFLFEakv6xopJATuiJbkIQ1Lebm/z/76FpIT09GI8agpBv3wGDhdPi3CH7KFbACnEMaldS0VxpX96XKmz5nxeMJ0MgWElDOGYsRCi5ixPNilO9jhbi90v/+vkDvXX/M3rl3j5ju/ZIowEiHmTCUQpFi2Q8p3IKdVC6Oecy6NWJn9VTCHlEi57Q33YoBDKGUN8ZIuQAkTLJQ6lLozq0ZYyqTUU8WqqMXRwx3zR6VgalBFiALBTxCs1MJQGdRs0F4pOZeZFXcMQ5lGcUKpTASl7VsIzn2DU//y3yG3r7/ub167xq13bjBx5+xszpn5jJgS3i2LAWYYrPthYre6VlHMDMtlKZmAB8XrhhbhwcY2sRlz5sw55tM5TazwoZOGF08XA56NWiJiPiStlKrBYSJZBrrX/phPHsKTDZg2cGoKTT5FkxdEdxAbBDoIx0vfZei/A4iWNNYVk+IQ+ig82H7KBxubfOXf/hly+/p1f/PQxhhXz5zlaxcvEpcHdJub1CpDkaq0oVKqMW7FkwUNJUdalVWAPig2GhGOHeO9W7fpJfKd73yXF86/wHQ0xvqMm5VAJCgSApYzZAiDJpr5kD4MEwHEGFjf+ve8/R78+rdwfAJfPQfj/hRNd4nKDIbsfiXIVWqyyqPyQIIVYk4wUZiM0LUZ7975mL+7e5ev/Zs/fZ7aVC8R4QzlmCkns3Aqw/EMx5Jz3Jy1ZOXa4YQLa8lYS5ljyTiejGPZOJadNVcWoaaWQFBlVDdMxxPGdcOkGTEfT1mMpkyrEY1ERrFhXDfUsWbcjId7x4zqEaN6xLgeMW2mjCNIBu+hcZgCC4dJ2zJPPfM+segTiz6z6DPHzTlhwqI3Zt3wf8rDvR3z3LNwY4JTC4RhFpTB8q/mZUUdBM9Ulqlyps6Z2o6cV9fP/W7U2WiSU2cnWsnqncKJmHkJ6LLhOeMpF9Y/ZdQMzYZYiZsKOKQbVgwBPijv8D0YVBlqg8oTlaWhP6UvK1Rmh/2rzIg2jM0z0dOQvZc61oq418Lkl0ZNIKuRNZNCJmnG1IbdDl+EIxHoSvuGgNBFyTKQ0O5FKINwVumCmKM2VBuGykLBswpESUB80Ow5MEeYo8wJzFEaIIGsltH//1jlh1mMLE5WJ2sJLAtZrmixFF8w+CPWfRWd/C5WjT1zkSu9K8IZbhjIqVXdesW0Fa1YlTEKqyeU8sZngRvIn+N8F5MaZw38FfDjg+AKXJ5ZmefEJAwkWiHTWPVZVj0p2u2AdtbTWoeRSlImQjBHshHRQnq4DBuBPgspMdewe8HcSO4kp0SRCOTCpcgqi9Zic4q9HvbZrJyHB9R10JRSoyooWlOSCyv1Z5WSMqS+2H1RzCCZka0ku+XzrOpgPpgJElFscNqF2FltYooDwaYhKDHGsq1Cim9PEuhDzX6M7GjgoG4+F/v1iINmxH7dsF/X7NU1+03DQV1xoMr+KltFCDGQcFrL5Kh4XWFNxJqI1xGLSi9OL5BCIGkk6aoUUvIuRMgYyXPZFRFrUmxIowldM2G/alg2I/briv26YjdW7MbATozsxMhujOzGwF5Q9oKyHyMHIdJVFd2gMWZFi+TuG6/5m6++Whi85Lx87jzfuPwSkxjw1CM21G8/5yhquirIQalqSil4hci+G+/f/JjtgyVf//o3uHLly8zn8/KUFwqUwwzZ6ftESk7qjJQSZmXvS0kLhCpEtrY3efdXN7h992POLo7xyoVLnFmsEbS4alXFrWToq3jokGYXP9wCUr6WOCZJYDcnPrp3l79/8IAv/+sfIL99/b/7f/vhD/nNL96hznByOuPsyZNMJxN6SyWeGLaD/c4hQ2NSGpdBNZ3Cxx60Sz598JC95ZLT589z5vw56qYZ7Et5ptg2wd1IKZN6IXUByyt7o4PtEaoQSN2SR0/usbX1hFEVWJvNOH36JBoF80SsIjknUkqkvmdY0Ef6vCLrhwmXUrzb3N7myfoGj1PP137wA+TeWz/1v/qv/4Xb//A+2mYiQhMr6vGI3o2U85AQHn37qpHVRdlTV356tj/Pzem7juwOMRDqGlEZgtHDB8obHCyDJcVSzf5OZrkLajVKQFGCK3gm5T08toxmwmgmjKc1DDsqQiyRuA/8z+EGyMNj8PfDIQiiQt919F3PUpWrf/yH/D9Xrk8hLJMiogAAAABJRU5ErkJggg==;" vertex="1" parent="1">
          <mxGeometry x="1362" y="738" width="40" height="22.29" as="geometry" />
        </mxCell>
        <mxCell id="Qyl7MHK5gURJybowoytH-110" value="Forti Gate FW" style="text;strokeColor=none;align=center;fillColor=none;html=1;verticalAlign=middle;whiteSpace=wrap;rounded=0;fontStyle=1" vertex="1" parent="1">
          <mxGeometry x="1302" y="749" width="60" height="30" as="geometry" />
        </mxCell>
      </root>
    </mxGraphModel>
  </diagram>
</mxfile>
